G04 DesignSpark PCB Gerber Version 11.0 Build 5877*
G04 #@! TF.Part,Single*
G04 #@! TF.FileFunction,Legend,Top*
G04 #@! TF.FilePolarity,Positive*
%FSLAX35Y35*%
%MOIN*%
%ADD20C,0.00197*%
%ADD124C,0.00300*%
%ADD21C,0.00394*%
%ADD73C,0.00500*%
%ADD74C,0.00787*%
%ADD75C,0.00984*%
%ADD16C,0.01181*%
G04 #@! TD.AperFunction*
X0Y0D02*
D02*
D16*
X52622Y212061D02*
X53016D02*
G75*
G03*
X52622I-197J0D01*
G01*
X53016D02*
G75*
G02*
X52622I-197J0D01*
G01*
X448311Y101234D02*
G75*
G03*
Y101628I0J197D01*
G01*
Y101234D02*
G75*
G02*
Y101628I0J197D01*
G01*
X530201Y101234D02*
G75*
G03*
Y101628I0J197D01*
G01*
Y101234D02*
G75*
G02*
Y101628I0J197D01*
G01*
X612091Y101234D02*
G75*
G03*
Y101628I0J197D01*
G01*
Y101234D02*
G75*
G02*
Y101628I0J197D01*
G01*
X693980Y101234D02*
G75*
G03*
Y101628I0J197D01*
G01*
Y101234D02*
G75*
G02*
Y101628I0J197D01*
G01*
X779807Y101234D02*
G75*
G03*
Y101628I0J197D01*
G01*
Y101234D02*
G75*
G02*
Y101628I0J197D01*
G01*
X865634Y101234D02*
G75*
G03*
Y101628I0J197D01*
G01*
Y101234D02*
G75*
G02*
Y101628I0J197D01*
G01*
X951461Y101234D02*
G75*
G03*
Y101628I0J197D01*
G01*
Y101234D02*
G75*
G02*
Y101628I0J197D01*
G01*
X1033311Y101234D02*
G75*
G03*
Y101628I0J197D01*
G01*
Y101234D02*
G75*
G02*
Y101628I0J197D01*
G01*
D02*
D20*
X400240Y72652D02*
Y72848D02*
G75*
G03*
Y72652I0J-98D01*
G01*
Y72848D02*
G75*
G02*
Y72652I0J-98D01*
G01*
X401490Y86402D02*
Y86598D02*
G75*
G03*
Y86402I0J-98D01*
G01*
Y86598D02*
G75*
G02*
Y86402I0J-98D01*
G01*
X465152Y75260D02*
X465348D02*
G75*
G03*
X465152I-98J0D01*
G01*
X465348D02*
G75*
G02*
X465152I-98J0D01*
G01*
X483902D02*
X484098D02*
G75*
G03*
X483902I-98J0D01*
G01*
X484098D02*
G75*
G02*
X483902I-98J0D01*
G01*
X542750Y45496D02*
G75*
G03*
Y45693I0J98D01*
G01*
Y45496D02*
G75*
G02*
Y45693I0J98D01*
G01*
X551402Y80260D02*
X551598D02*
G75*
G03*
X551402I-98J0D01*
G01*
X551598D02*
G75*
G02*
X551402I-98J0D01*
G01*
X566402D02*
X566598D02*
G75*
G03*
X566402I-98J0D01*
G01*
X566598D02*
G75*
G02*
X566402I-98J0D01*
G01*
X631402Y85260D02*
X631598D02*
G75*
G03*
X631402I-98J0D01*
G01*
X631598D02*
G75*
G02*
X631402I-98J0D01*
G01*
X646402D02*
X646598D02*
G75*
G03*
X646402I-98J0D01*
G01*
X646598D02*
G75*
G02*
X646402I-98J0D01*
G01*
X718902Y84010D02*
X719098D02*
G75*
G03*
X718902I-98J0D01*
G01*
X719098D02*
G75*
G02*
X718902I-98J0D01*
G01*
X730152Y91490D02*
G75*
G03*
X730348I98J0D01*
G01*
X730152D02*
G75*
G02*
X730348I98J0D01*
G01*
X746402Y65240D02*
G75*
G03*
X746598I98J0D01*
G01*
X746402D02*
G75*
G02*
X746598I98J0D01*
G01*
X803469Y86510D02*
X803665D02*
G75*
G03*
X803469I-98J0D01*
G01*
X803665D02*
G75*
G02*
X803469I-98J0D01*
G01*
X816402D02*
X816598D02*
G75*
G03*
X816402I-98J0D01*
G01*
X816598D02*
G75*
G02*
X816402I-98J0D01*
G01*
X885152D02*
X885348D02*
G75*
G03*
X885152I-98J0D01*
G01*
X885348D02*
G75*
G02*
X885152I-98J0D01*
G01*
X902652D02*
X902848D02*
G75*
G03*
X902652I-98J0D01*
G01*
X902848D02*
G75*
G02*
X902652I-98J0D01*
G01*
X972652Y84010D02*
X972848D02*
G75*
G03*
X972652I-98J0D01*
G01*
X972848D02*
G75*
G02*
X972652I-98J0D01*
G01*
X990152D02*
X990348D02*
G75*
G03*
X990152I-98J0D01*
G01*
X990348D02*
G75*
G02*
X990152I-98J0D01*
G01*
X1006500Y52573D02*
G75*
G03*
Y52770I0J98D01*
G01*
Y52573D02*
G75*
G02*
Y52770I0J98D01*
G01*
X1017652Y85260D02*
X1017848D02*
G75*
G03*
X1017652I-98J0D01*
G01*
X1017848D02*
G75*
G02*
X1017652I-98J0D01*
G01*
X1030152Y82760D02*
X1030348D02*
G75*
G03*
X1030152I-98J0D01*
G01*
X1030348D02*
G75*
G02*
X1030152I-98J0D01*
G01*
D02*
D21*
X10496Y215998D02*
Y184502D01*
X47504D02*
Y176628D01*
X32937D01*
X47504Y215998D02*
Y223872D01*
X32937D01*
X420752Y106746D02*
X412878D01*
Y121313D01*
X452189Y15939D02*
Y39561D01*
X452248Y106746D02*
X460122D01*
Y121313D01*
X452248Y143754D02*
X420752D01*
X475811Y39561D02*
Y15939D01*
X502642Y106746D02*
X494768D01*
Y121313D01*
X511303Y36490D02*
G75*
G03*
X511697I197J0D01*
G01*
X511303D02*
G75*
G02*
X511697I197J0D01*
G01*
X534138Y106746D02*
X542012D01*
Y121313D01*
X534138Y143754D02*
X502642D01*
X584531Y106746D02*
X576657D01*
Y121313D01*
X616028Y106746D02*
X623902D01*
Y121313D01*
X616028Y143754D02*
X584531D01*
X666421Y106746D02*
X658547D01*
Y121313D01*
X697917Y106746D02*
X705791D01*
Y121313D01*
X697917Y143754D02*
X666421D01*
X752248Y106746D02*
X744374D01*
Y121313D01*
X783744Y106746D02*
X791618D01*
Y121313D01*
X783744Y143754D02*
X752248D01*
X838075Y106746D02*
X830201D01*
Y121313D01*
X869571Y106746D02*
X877445D01*
Y121313D01*
X869571Y143754D02*
X838075D01*
X923902Y106746D02*
X916028D01*
Y121313D01*
X955398Y106746D02*
X963272D01*
Y121313D01*
X955398Y143754D02*
X923902D01*
X964010Y56303D02*
G75*
G03*
Y56697I0J197D01*
G01*
Y56303D02*
G75*
G02*
Y56697I0J197D01*
G01*
X1005752Y106746D02*
X997878D01*
Y121313D01*
X1037248Y106746D02*
X1045122D01*
Y121313D01*
X1037248Y143754D02*
X1005752D01*
X1038941Y21825D02*
Y24581D01*
X1044059Y21825D02*
Y24581D01*
X1047031Y39502D02*
X1033252D01*
Y45407D01*
X1047031Y70998D02*
X1033252D01*
Y65093D01*
X1069472Y47376D02*
Y63124D01*
D02*
D73*
X70250Y182437D02*
Y186187D01*
X72437D01*
X73063Y185875D01*
X73375Y185250D01*
X73063Y184625D01*
X72437Y184313D01*
X70250D01*
X75250Y182437D02*
Y186187D01*
X78375D01*
X77750Y184313D02*
X75250D01*
Y182437D02*
X78375D01*
X80875D02*
X82125D01*
X81500D02*
Y186187D01*
X80875Y185563D01*
X70250Y191187D02*
Y194937D01*
X72437D01*
X73063Y194625D01*
X73375Y194000D01*
X73063Y193375D01*
X72437Y193063D01*
X70250D01*
X75250Y191187D02*
Y194937D01*
X78375D01*
X77750Y193063D02*
X75250D01*
Y191187D02*
X78375D01*
X80563Y191500D02*
X81187Y191187D01*
X81813D01*
X82437Y191500D01*
X82750Y192125D01*
Y194000D01*
X82437Y194625D01*
X81813Y194937D01*
X81187D01*
X80563Y194625D01*
X80250Y194000D01*
Y192125D01*
X80563Y191500D01*
X82437Y194625D01*
X70250Y199937D02*
Y203687D01*
X72437D01*
X73063Y203375D01*
X73375Y202750D01*
X73063Y202125D01*
X72437Y201813D01*
X70250D01*
X78375Y200563D02*
X78063Y200250D01*
X77437Y199937D01*
X76500D01*
X75875Y200250D01*
X75563Y200563D01*
X75250Y201187D01*
Y202437D01*
X75563Y203063D01*
X75875Y203375D01*
X76500Y203687D01*
X77437D01*
X78063Y203375D01*
X78375Y203063D01*
X80250Y200250D02*
X80875Y199937D01*
X81813D01*
X82437Y200250D01*
X82750Y200875D01*
Y201187D01*
X82437Y201813D01*
X81813Y202125D01*
X80250D01*
Y203687D01*
X82750D01*
X70250Y207437D02*
Y211187D01*
X72437D01*
X73063Y210875D01*
X73375Y210250D01*
X73063Y209625D01*
X72437Y209313D01*
X70250D01*
X78375Y208063D02*
X78063Y207750D01*
X77437Y207437D01*
X76500D01*
X75875Y207750D01*
X75563Y208063D01*
X75250Y208687D01*
Y209937D01*
X75563Y210563D01*
X75875Y210875D01*
X76500Y211187D01*
X77437D01*
X78063Y210875D01*
X78375Y210563D01*
X81813Y207437D02*
Y211187D01*
X80250Y208687D01*
X82750D01*
X223687Y16500D02*
X224625D01*
Y16187D01*
X224313Y15563D01*
X224000Y15250D01*
X223375Y14937D01*
X222750D01*
X222125Y15250D01*
X221813Y15563D01*
X221500Y16187D01*
Y17437D01*
X221813Y18063D01*
X222125Y18375D01*
X222750Y18687D01*
X223375D01*
X224000Y18375D01*
X224313Y18063D01*
X224625Y17437D01*
X226500Y14937D02*
Y18687D01*
X229625Y14937D01*
Y18687D01*
X231500Y14937D02*
Y18687D01*
X233375D01*
X234000Y18375D01*
X234313Y18063D01*
X234625Y17437D01*
Y16187D01*
X234313Y15563D01*
X234000Y15250D01*
X233375Y14937D01*
X231500D01*
X239000Y15250D02*
X239625Y14937D01*
X240563D01*
X241187Y15250D01*
X241500Y15875D01*
Y16187D01*
X241187Y16813D01*
X240563Y17125D01*
X239000D01*
Y18687D01*
X241500D01*
X244000D02*
X245563Y14937D01*
X247125Y18687D01*
X412437Y29625D02*
X412750Y29313D01*
X413063Y28687D01*
Y27750D01*
X412750Y27125D01*
X412437Y26813D01*
X411813Y26500D01*
X410563D01*
X409937Y26813D01*
X409625Y27125D01*
X409313Y27750D01*
Y28687D01*
X409625Y29313D01*
X409937Y29625D01*
X412750Y31500D02*
X413063Y32125D01*
Y33063D01*
X412750Y33687D01*
X412125Y34000D01*
X411813D01*
X411187Y33687D01*
X410875Y33063D01*
Y31500D01*
X409313D01*
Y34000D01*
X416500Y84313D02*
Y80563D01*
X414313D01*
X413687Y80875D01*
X413375Y81500D01*
X413687Y82125D01*
X414313Y82437D01*
X416500D01*
X414313D02*
X413375Y84313D01*
X409000D02*
X411500D01*
X409313Y82125D01*
X409000Y81500D01*
X409313Y80875D01*
X409937Y80563D01*
X410875D01*
X411500Y80875D01*
X405875Y84313D02*
X404625D01*
X405250D02*
Y80563D01*
X405875Y81187D01*
X419000Y11187D02*
X420563Y7437D01*
X422125Y11187D01*
X424000Y7750D02*
X424625Y7437D01*
X425563D01*
X426187Y7750D01*
X426500Y8375D01*
Y8687D01*
X426187Y9313D01*
X425563Y9625D01*
X424000D01*
Y11187D01*
X426500D01*
X420250Y74313D02*
Y70563D01*
X418063D01*
X417437Y70875D01*
X417125Y71500D01*
X417437Y72125D01*
X418063Y72437D01*
X420250D01*
X418063D02*
X417125Y74313D01*
X412750D02*
X415250D01*
X413063Y72125D01*
X412750Y71500D01*
X413063Y70875D01*
X413687Y70563D01*
X414625D01*
X415250Y70875D01*
X409937Y74000D02*
X409313Y74313D01*
X408687D01*
X408063Y74000D01*
X407750Y73375D01*
Y71500D01*
X408063Y70875D01*
X408687Y70563D01*
X409313D01*
X409937Y70875D01*
X410250Y71500D01*
Y73375D01*
X409937Y74000D01*
X408063Y70875D01*
X423063Y27437D02*
Y28687D01*
Y28063D02*
X419313D01*
Y27437D02*
Y28687D01*
X422437Y34625D02*
X422750Y34313D01*
X423063Y33687D01*
Y32750D01*
X422750Y32125D01*
X422437Y31813D01*
X421813Y31500D01*
X420563D01*
X419937Y31813D01*
X419625Y32125D01*
X419313Y32750D01*
Y33687D01*
X419625Y34313D01*
X419937Y34625D01*
X423063Y37125D02*
Y38375D01*
Y37750D02*
X419313D01*
X419937Y37125D01*
X442125Y50563D02*
X441813Y50250D01*
X441187Y49937D01*
X440250D01*
X439625Y50250D01*
X439313Y50563D01*
X439000Y51187D01*
Y52437D01*
X439313Y53063D01*
X439625Y53375D01*
X440250Y53687D01*
X441187D01*
X441813Y53375D01*
X442125Y53063D01*
X444000Y50875D02*
X444313Y51500D01*
X444937Y51813D01*
X445563D01*
X446187Y51500D01*
X446500Y50875D01*
X446187Y50250D01*
X445563Y49937D01*
X444937D01*
X444313Y50250D01*
X444000Y50875D01*
Y51813D01*
X444313Y52750D01*
X444937Y53375D01*
X445563Y53687D01*
X452750Y54937D02*
Y51187D01*
X455875D01*
X457750Y51500D02*
X458375Y51187D01*
X459313D01*
X459937Y51500D01*
X460250Y52125D01*
Y52437D01*
X459937Y53063D01*
X459313Y53375D01*
X457750D01*
Y54937D01*
X460250D01*
X461813Y79000D02*
X458063D01*
Y81187D01*
X458375Y81813D01*
X459000Y82125D01*
X459625Y81813D01*
X459937Y81187D01*
Y79000D01*
Y81187D02*
X461813Y82125D01*
X461500Y84000D02*
X461813Y84625D01*
Y85563D01*
X461500Y86187D01*
X460875Y86500D01*
X460563D01*
X459937Y86187D01*
X459625Y85563D01*
Y84000D01*
X458063D01*
Y86500D01*
X473687Y105250D02*
X473063Y105563D01*
X472437D01*
X471813Y105250D01*
X471500Y104625D01*
Y102750D01*
X471813Y102125D01*
X472437Y101813D01*
X473063D01*
X473687Y102125D01*
X474000Y102750D01*
Y104625D01*
X473687Y105250D01*
X471813Y102125D01*
X480563Y79000D02*
X476813D01*
Y81187D01*
X477125Y81813D01*
X477750Y82125D01*
X478375Y81813D01*
X478687Y81187D01*
Y79000D01*
Y81187D02*
X480563Y82125D01*
Y85563D02*
X476813D01*
X479313Y84000D01*
Y86500D01*
X501813Y20875D02*
X501500Y21187D01*
X501187Y21813D01*
Y22750D01*
X501500Y23375D01*
X501813Y23687D01*
X502437Y24000D01*
X503687D01*
X504313Y23687D01*
X504625Y23375D01*
X504937Y22750D01*
Y21813D01*
X504625Y21187D01*
X504313Y20875D01*
X501187Y19000D02*
X504937Y16500D01*
Y19000D01*
X521813Y29625D02*
X521500Y29937D01*
X521187Y30563D01*
Y31500D01*
X521500Y32125D01*
X521813Y32437D01*
X522437Y32750D01*
X523687D01*
X524313Y32437D01*
X524625Y32125D01*
X524937Y31500D01*
Y30563D01*
X524625Y29937D01*
X524313Y29625D01*
X523063Y26813D02*
Y26187D01*
X523375Y25563D01*
X524000Y25250D01*
X524625Y25563D01*
X524937Y26187D01*
Y26813D01*
X524625Y27437D01*
X524000Y27750D01*
X523375Y27437D01*
X523063Y26813D01*
X522750Y27437D01*
X522125Y27750D01*
X521500Y27437D01*
X521187Y26813D01*
Y26187D01*
X521500Y25563D01*
X522125Y25250D01*
X522750Y25563D01*
X523063Y26187D01*
X532125Y49313D02*
X531813Y49000D01*
X531187Y48687D01*
X530250D01*
X529625Y49000D01*
X529313Y49313D01*
X529000Y49937D01*
Y51187D01*
X529313Y51813D01*
X529625Y52125D01*
X530250Y52437D01*
X531187D01*
X531813Y52125D01*
X532125Y51813D01*
X534937Y48687D02*
X535563Y49000D01*
X536187Y49625D01*
X536500Y50563D01*
Y51500D01*
X536187Y52125D01*
X535563Y52437D01*
X534937D01*
X534313Y52125D01*
X534000Y51500D01*
X534313Y50875D01*
X534937Y50563D01*
X535563D01*
X536187Y50875D01*
X536500Y51500D01*
X550563Y84000D02*
X546813D01*
Y86187D01*
X547125Y86813D01*
X547750Y87125D01*
X548375Y86813D01*
X548687Y86187D01*
Y84000D01*
Y86187D02*
X550563Y87125D01*
Y89000D02*
X546813Y91500D01*
Y89000D01*
X557125Y106813D02*
X555875D01*
X556500D02*
Y103063D01*
X557125Y103687D01*
X565563Y84000D02*
X561813D01*
Y86187D01*
X562125Y86813D01*
X562750Y87125D01*
X563375Y86813D01*
X563687Y86187D01*
Y84000D01*
Y86187D02*
X565563Y87125D01*
X564625Y89000D02*
X564000Y89313D01*
X563687Y89937D01*
Y90563D01*
X564000Y91187D01*
X564625Y91500D01*
X565250Y91187D01*
X565563Y90563D01*
Y89937D01*
X565250Y89313D01*
X564625Y89000D01*
X563687D01*
X562750Y89313D01*
X562125Y89937D01*
X561813Y90563D01*
X630563Y89000D02*
X626813D01*
Y91187D01*
X627125Y91813D01*
X627750Y92125D01*
X628375Y91813D01*
X628687Y91187D01*
Y89000D01*
Y91187D02*
X630563Y92125D01*
Y94937D02*
X630250Y95563D01*
X629625Y96187D01*
X628687Y96500D01*
X627750D01*
X627125Y96187D01*
X626813Y95563D01*
Y94937D01*
X627125Y94313D01*
X627750Y94000D01*
X628375Y94313D01*
X628687Y94937D01*
Y95563D01*
X628375Y96187D01*
X627750Y96500D01*
X637750Y108063D02*
X640250D01*
X638063Y105875D01*
X637750Y105250D01*
X638063Y104625D01*
X638687Y104313D01*
X639625D01*
X640250Y104625D01*
X641813Y80250D02*
X638063D01*
Y82437D01*
X638375Y83063D01*
X639000Y83375D01*
X639625Y83063D01*
X639937Y82437D01*
Y80250D01*
Y82437D02*
X641813Y83375D01*
X639937Y86187D02*
Y86813D01*
X639625Y87437D01*
X639000Y87750D01*
X638375Y87437D01*
X638063Y86813D01*
Y86187D01*
X638375Y85563D01*
X639000Y85250D01*
X639625Y85563D01*
X639937Y86187D01*
X640250Y85563D01*
X640875Y85250D01*
X641500Y85563D01*
X641813Y86187D01*
Y86813D01*
X641500Y87437D01*
X640875Y87750D01*
X640250Y87437D01*
X639937Y86813D01*
X718063Y87750D02*
X714313D01*
Y89937D01*
X714625Y90563D01*
X715250Y90875D01*
X715875Y90563D01*
X716187Y89937D01*
Y87750D01*
Y89937D02*
X718063Y90875D01*
Y93375D02*
Y94625D01*
Y94000D02*
X714313D01*
X714937Y93375D01*
X718063Y98375D02*
Y99625D01*
Y99000D02*
X714313D01*
X714937Y98375D01*
X719937Y106500D02*
X719313Y106813D01*
X718687D01*
X718063Y106500D01*
X717750Y105875D01*
X718063Y105250D01*
X718687Y104937D01*
X719313D01*
X718687D02*
X718063Y104625D01*
X717750Y104000D01*
X718063Y103375D01*
X718687Y103063D01*
X719313D01*
X719937Y103375D01*
X731187Y87750D02*
X734937D01*
Y85563D01*
X734625Y84937D01*
X734000Y84625D01*
X733375Y84937D01*
X733063Y85563D01*
Y87750D01*
Y85563D02*
X731187Y84625D01*
Y82125D02*
Y80875D01*
Y81500D02*
X734937D01*
X734313Y82125D01*
X731500Y77437D02*
X731187Y76813D01*
Y76187D01*
X731500Y75563D01*
X732125Y75250D01*
X734000D01*
X734625Y75563D01*
X734937Y76187D01*
Y76813D01*
X734625Y77437D01*
X734000Y77750D01*
X732125D01*
X731500Y77437D01*
X734625Y75563D01*
X744937Y37437D02*
X746187D01*
X745563D02*
Y41187D01*
X744937D02*
X746187D01*
X752125Y38063D02*
X751813Y37750D01*
X751187Y37437D01*
X750250D01*
X749625Y37750D01*
X749313Y38063D01*
X749000Y38687D01*
Y39937D01*
X749313Y40563D01*
X749625Y40875D01*
X750250Y41187D01*
X751187D01*
X751813Y40875D01*
X752125Y40563D01*
X754313Y37750D02*
X754937Y37437D01*
X755563D01*
X756187Y37750D01*
X756500Y38375D01*
X756187Y39000D01*
X755563Y39313D01*
X754937D01*
X755563D02*
X756187Y39625D01*
X756500Y40250D01*
X756187Y40875D01*
X755563Y41187D01*
X754937D01*
X754313Y40875D01*
X747437Y62750D02*
X751187D01*
Y60563D01*
X750875Y59937D01*
X750250Y59625D01*
X749625Y59937D01*
X749313Y60563D01*
Y62750D01*
Y60563D02*
X747437Y59625D01*
X747750Y57437D02*
X747437Y56813D01*
Y56187D01*
X747750Y55563D01*
X748375Y55250D01*
X749000Y55563D01*
X749313Y56187D01*
Y56813D01*
Y56187D02*
X749625Y55563D01*
X750250Y55250D01*
X750875Y55563D01*
X751187Y56187D01*
Y56813D01*
X750875Y57437D01*
X799937Y110563D02*
Y106813D01*
X801500Y109313D01*
X799000D01*
X802630Y90250D02*
X798880D01*
Y92437D01*
X799192Y93063D01*
X799817Y93375D01*
X800442Y93063D01*
X800754Y92437D01*
Y90250D01*
Y92437D02*
X802630Y93375D01*
Y95875D02*
Y97125D01*
Y96500D02*
X798880D01*
X799504Y95875D01*
X802317Y100563D02*
X802630Y101187D01*
Y101813D01*
X802317Y102437D01*
X801692Y102750D01*
X801067Y102437D01*
X800754Y101813D01*
Y101187D01*
Y101813D02*
X800442Y102437D01*
X799817Y102750D01*
X799192Y102437D01*
X798880Y101813D01*
Y101187D01*
X799192Y100563D01*
X815563Y90250D02*
X811813D01*
Y92437D01*
X812125Y93063D01*
X812750Y93375D01*
X813375Y93063D01*
X813687Y92437D01*
Y90250D01*
Y92437D02*
X815563Y93375D01*
Y95875D02*
Y97125D01*
Y96500D02*
X811813D01*
X812437Y95875D01*
X815563Y102750D02*
Y100250D01*
X813375Y102437D01*
X812750Y102750D01*
X812125Y102437D01*
X811813Y101813D01*
Y100875D01*
X812125Y100250D01*
X884313Y85250D02*
X880563D01*
Y87437D01*
X880875Y88063D01*
X881500Y88375D01*
X882125Y88063D01*
X882437Y87437D01*
Y85250D01*
Y87437D02*
X884313Y88375D01*
Y90875D02*
Y92125D01*
Y91500D02*
X880563D01*
X881187Y90875D01*
X884000Y95250D02*
X884313Y95875D01*
Y96813D01*
X884000Y97437D01*
X883375Y97750D01*
X883063D01*
X882437Y97437D01*
X882125Y96813D01*
Y95250D01*
X880563D01*
Y97750D01*
X890250Y109000D02*
X889625Y109313D01*
X888687D01*
X888063Y109000D01*
X887750Y108375D01*
Y108063D01*
X888063Y107437D01*
X888687Y107125D01*
X890250D01*
Y105563D01*
X887750D01*
X899000Y48687D02*
X900563Y44937D01*
X902125Y48687D01*
X904313Y45250D02*
X904937Y44937D01*
X905563D01*
X906187Y45250D01*
X906500Y45875D01*
X906187Y46500D01*
X905563Y46813D01*
X904937D01*
X905563D02*
X906187Y47125D01*
X906500Y47750D01*
X906187Y48375D01*
X905563Y48687D01*
X904937D01*
X904313Y48375D01*
X909313Y44937D02*
X909625Y45250D01*
X909313Y45563D01*
X909000Y45250D01*
X909313Y44937D01*
X914313Y45250D02*
X914937Y44937D01*
X915563D01*
X916187Y45250D01*
X916500Y45875D01*
X916187Y46500D01*
X915563Y46813D01*
X914937D01*
X915563D02*
X916187Y47125D01*
X916500Y47750D01*
X916187Y48375D01*
X915563Y48687D01*
X914937D01*
X914313Y48375D01*
X901813Y90250D02*
X898063D01*
Y92437D01*
X898375Y93063D01*
X899000Y93375D01*
X899625Y93063D01*
X899937Y92437D01*
Y90250D01*
Y92437D02*
X901813Y93375D01*
Y95875D02*
Y97125D01*
Y96500D02*
X898063D01*
X898687Y95875D01*
X901813Y101813D02*
X898063D01*
X900563Y100250D01*
Y102750D01*
X925875Y10563D02*
X925563Y10250D01*
X924937Y9937D01*
X924000D01*
X923375Y10250D01*
X923063Y10563D01*
X922750Y11187D01*
Y12437D01*
X923063Y13063D01*
X923375Y13375D01*
X924000Y13687D01*
X924937D01*
X925563Y13375D01*
X925875Y13063D01*
X928375Y9937D02*
X929625D01*
X929000D02*
Y13687D01*
X928375Y13063D01*
X933375Y9937D02*
X934625D01*
X934000D02*
Y13687D01*
X933375Y13063D01*
X938375Y60563D02*
X938063Y60250D01*
X937437Y59937D01*
X936500D01*
X935875Y60250D01*
X935563Y60563D01*
X935250Y61187D01*
Y62437D01*
X935563Y63063D01*
X935875Y63375D01*
X936500Y63687D01*
X937437D01*
X938063Y63375D01*
X938375Y63063D01*
X940875Y59937D02*
X942125D01*
X941500D02*
Y63687D01*
X940875Y63063D01*
X945563Y60250D02*
X946187Y59937D01*
X946813D01*
X947437Y60250D01*
X947750Y60875D01*
Y62750D01*
X947437Y63375D01*
X946813Y63687D01*
X946187D01*
X945563Y63375D01*
X945250Y62750D01*
Y60875D01*
X945563Y60250D01*
X947437Y63375D01*
X942437Y51187D02*
X943687D01*
X943063D02*
Y54937D01*
X942437D02*
X943687D01*
X949625Y51813D02*
X949313Y51500D01*
X948687Y51187D01*
X947750D01*
X947125Y51500D01*
X946813Y51813D01*
X946500Y52437D01*
Y53687D01*
X946813Y54313D01*
X947125Y54625D01*
X947750Y54937D01*
X948687D01*
X949313Y54625D01*
X949625Y54313D01*
X954000Y51187D02*
X951500D01*
X953687Y53375D01*
X954000Y54000D01*
X953687Y54625D01*
X953063Y54937D01*
X952125D01*
X951500Y54625D01*
X973375Y60563D02*
X973063Y60250D01*
X972437Y59937D01*
X971500D01*
X970875Y60250D01*
X970563Y60563D01*
X970250Y61187D01*
Y62437D01*
X970563Y63063D01*
X970875Y63375D01*
X971500Y63687D01*
X972437D01*
X973063Y63375D01*
X973375Y63063D01*
X975875Y59937D02*
X977125D01*
X976500D02*
Y63687D01*
X975875Y63063D01*
X981813Y59937D02*
Y63687D01*
X980250Y61187D01*
X982750D01*
X971813Y87750D02*
X968063D01*
Y89937D01*
X968375Y90563D01*
X969000Y90875D01*
X969625Y90563D01*
X969937Y89937D01*
Y87750D01*
Y89937D02*
X971813Y90875D01*
Y93375D02*
Y94625D01*
Y94000D02*
X968063D01*
X968687Y93375D01*
X971813Y97750D02*
X968063Y100250D01*
Y97750D01*
X978375Y49313D02*
X978063Y49000D01*
X977437Y48687D01*
X976500D01*
X975875Y49000D01*
X975563Y49313D01*
X975250Y49937D01*
Y51187D01*
X975563Y51813D01*
X975875Y52125D01*
X976500Y52437D01*
X977437D01*
X978063Y52125D01*
X978375Y51813D01*
X980875Y48687D02*
X982125D01*
X981500D02*
Y52437D01*
X980875Y51813D01*
X985563Y49000D02*
X986187Y48687D01*
X986813D01*
X987437Y49000D01*
X987750Y49625D01*
X987437Y50250D01*
X986813Y50563D01*
X986187D01*
X986813D02*
X987437Y50875D01*
X987750Y51500D01*
X987437Y52125D01*
X986813Y52437D01*
X986187D01*
X985563Y52125D01*
X976500Y34111D02*
Y30361D01*
X979625D01*
X983063D02*
Y34111D01*
X981500Y31611D01*
X984000D01*
X977750Y117125D02*
X977437Y116500D01*
X976813Y116187D01*
X976187D01*
X975563Y116500D01*
X975250Y117125D01*
X975563Y117750D01*
X976187Y118063D01*
X976813D01*
X977437Y117750D01*
X977750Y117125D01*
Y116187D01*
X977437Y115250D01*
X976813Y114625D01*
X976187Y114313D01*
X989313Y87750D02*
X985563D01*
Y89937D01*
X985875Y90563D01*
X986500Y90875D01*
X987125Y90563D01*
X987437Y89937D01*
Y87750D01*
Y89937D02*
X989313Y90875D01*
Y93375D02*
Y94625D01*
Y94000D02*
X985563D01*
X986187Y93375D01*
X988375Y97750D02*
X987750Y98063D01*
X987437Y98687D01*
Y99313D01*
X987750Y99937D01*
X988375Y100250D01*
X989000Y99937D01*
X989313Y99313D01*
Y98687D01*
X989000Y98063D01*
X988375Y97750D01*
X987437D01*
X986500Y98063D01*
X985875Y98687D01*
X985563Y99313D01*
X1012125Y59313D02*
X1011813Y59000D01*
X1011187Y58687D01*
X1010250D01*
X1009625Y59000D01*
X1009313Y59313D01*
X1009000Y59937D01*
Y61187D01*
X1009313Y61813D01*
X1009625Y62125D01*
X1010250Y62437D01*
X1011187D01*
X1011813Y62125D01*
X1012125Y61813D01*
X1014625Y58687D02*
X1015875D01*
X1015250D02*
Y62437D01*
X1014625Y61813D01*
X1021500Y58687D02*
X1019000D01*
X1021187Y60875D01*
X1021500Y61500D01*
X1021187Y62125D01*
X1020563Y62437D01*
X1019625D01*
X1019000Y62125D01*
X1016813Y89000D02*
X1013063D01*
Y91187D01*
X1013375Y91813D01*
X1014000Y92125D01*
X1014625Y91813D01*
X1014937Y91187D01*
Y89000D01*
Y91187D02*
X1016813Y92125D01*
Y94625D02*
Y95875D01*
Y95250D02*
X1013063D01*
X1013687Y94625D01*
X1016813Y99937D02*
X1016500Y100563D01*
X1015875Y101187D01*
X1014937Y101500D01*
X1014000D01*
X1013375Y101187D01*
X1013063Y100563D01*
Y99937D01*
X1013375Y99313D01*
X1014000Y99000D01*
X1014625Y99313D01*
X1014937Y99937D01*
Y100563D01*
X1014625Y101187D01*
X1014000Y101500D01*
X1029313Y87750D02*
X1025563D01*
Y89937D01*
X1025875Y90563D01*
X1026500Y90875D01*
X1027125Y90563D01*
X1027437Y89937D01*
Y87750D01*
Y89937D02*
X1029313Y90875D01*
Y93375D02*
Y94625D01*
Y94000D02*
X1025563D01*
X1026187Y93375D01*
X1027437Y98687D02*
Y99313D01*
X1027125Y99937D01*
X1026500Y100250D01*
X1025875Y99937D01*
X1025563Y99313D01*
Y98687D01*
X1025875Y98063D01*
X1026500Y97750D01*
X1027125Y98063D01*
X1027437Y98687D01*
X1027750Y98063D01*
X1028375Y97750D01*
X1029000Y98063D01*
X1029313Y98687D01*
Y99313D01*
X1029000Y99937D01*
X1028375Y100250D01*
X1027750Y99937D01*
X1027437Y99313D01*
X1035563Y19659D02*
X1031813D01*
Y21535D01*
X1032125Y22159D01*
X1032437Y22472D01*
X1033063Y22785D01*
X1034313D01*
X1034937Y22472D01*
X1035250Y22159D01*
X1035563Y21535D01*
Y19659D01*
Y25285D02*
Y26535D01*
Y25909D02*
X1031813D01*
X1032437Y25285D01*
X1049504Y55250D02*
X1049817Y55563D01*
X1050130Y56187D01*
X1049817Y56813D01*
X1049504Y57125D01*
X1046380D01*
Y57750D01*
Y57125D02*
Y55875D01*
X1050130Y60875D02*
Y62125D01*
Y61500D02*
X1046380D01*
X1047004Y60875D01*
X1061461Y108063D02*
X1058961Y104313D01*
X1061461D01*
D02*
D74*
X423951Y16717D02*
Y21441D01*
X424541Y22819D02*
Y25181D01*
X435959D01*
Y22819D01*
X424541D01*
X431500Y49256D02*
Y43744D01*
X464000Y46337D02*
G75*
G02*
Y46730I0J197D01*
G01*
Y46337D02*
G75*
G02*
Y46730I0J197D01*
G01*
G75*
G02*
Y46337I0J-197D01*
G01*
X493606Y36943D02*
G75*
G03*
X494394I394J0D01*
G01*
X493606D02*
G75*
G02*
X494394I394J0D01*
G01*
X496067Y30250D02*
X491933D01*
X536844Y13508D02*
X529758D01*
Y32406D01*
X536844Y39492D01*
X548656D02*
X555742Y32406D01*
Y13508D01*
X548656D01*
X929217Y47799D02*
X933941D01*
X935250Y16244D02*
Y21756D01*
X935319Y47209D02*
X937681D01*
Y35791D01*
X935319D01*
Y47209D01*
X964807Y41106D02*
G75*
G03*
Y41894I0J394D01*
G01*
Y41106D02*
G75*
G02*
Y41894I0J394D01*
G01*
X971500Y43567D02*
Y39433D01*
X972750Y27671D02*
Y17829D01*
X1000594Y20585D02*
X993508D01*
Y39482D01*
X1000594Y46569D01*
X1012406D02*
X1019492Y39482D01*
Y20585D01*
X1012406D01*
D02*
D75*
X725043Y36874D02*
G75*
G02*
X724059I-492J0D01*
G01*
X725043D02*
G75*
G02*
X724059I-492J0D01*
G01*
G75*
G02*
X725043I492J0D01*
G01*
D02*
D124*
X1051500Y78875D02*
X1051687Y78500D01*
X1052063Y78313D01*
X1052813D01*
X1053187Y78500D01*
X1053375Y78875D01*
X1053187Y79250D01*
X1052813Y79437D01*
X1052063D01*
X1051687Y79625D01*
X1051500Y80000D01*
X1051687Y80375D01*
X1052063Y80563D01*
X1052813D01*
X1053187Y80375D01*
X1053375Y80000D01*
X1054813Y79813D02*
X1055687D01*
X1055250Y80187D02*
Y78500D01*
X1055437Y78313D01*
X1055625D01*
X1055813Y78500D01*
X1057500Y79625D02*
X1057875Y79813D01*
X1058437D01*
X1058813Y79625D01*
X1059000Y79250D01*
Y78687D01*
X1058813Y78500D01*
X1058437Y78313D01*
X1058063D01*
X1057687Y78500D01*
X1057500Y78687D01*
Y78875D01*
X1057687Y79063D01*
X1058063Y79250D01*
X1058437D01*
X1058813Y79063D01*
X1059000Y78875D01*
Y78687D02*
Y78313D01*
X1062000Y79625D02*
X1061625Y79813D01*
X1061063D01*
X1060687Y79625D01*
X1060500Y79250D01*
Y78875D01*
X1060687Y78500D01*
X1061063Y78313D01*
X1061625D01*
X1062000Y78500D01*
X1063500Y78313D02*
Y80563D01*
Y79063D02*
X1064063D01*
X1065000Y79813D01*
X1064063Y79063D02*
X1065000Y78313D01*
X1069500Y79063D02*
X1071000D01*
X1056500Y31375D02*
X1056687Y31000D01*
X1057063Y30813D01*
X1057813D01*
X1058187Y31000D01*
X1058375Y31375D01*
X1058187Y31750D01*
X1057813Y31937D01*
X1057063D01*
X1056687Y32125D01*
X1056500Y32500D01*
X1056687Y32875D01*
X1057063Y33063D01*
X1057813D01*
X1058187Y32875D01*
X1058375Y32500D01*
X1059813Y32313D02*
X1060687D01*
X1060250Y32687D02*
Y31000D01*
X1060437Y30813D01*
X1060625D01*
X1060813Y31000D01*
X1062500Y32125D02*
X1062875Y32313D01*
X1063437D01*
X1063813Y32125D01*
X1064000Y31750D01*
Y31187D01*
X1063813Y31000D01*
X1063437Y30813D01*
X1063063D01*
X1062687Y31000D01*
X1062500Y31187D01*
Y31375D01*
X1062687Y31563D01*
X1063063Y31750D01*
X1063437D01*
X1063813Y31563D01*
X1064000Y31375D01*
Y31187D02*
Y30813D01*
X1067000Y32125D02*
X1066625Y32313D01*
X1066063D01*
X1065687Y32125D01*
X1065500Y31750D01*
Y31375D01*
X1065687Y31000D01*
X1066063Y30813D01*
X1066625D01*
X1067000Y31000D01*
X1068500Y30813D02*
Y33063D01*
Y31563D02*
X1069063D01*
X1070000Y32313D01*
X1069063Y31563D02*
X1070000Y30813D01*
X1074500Y31563D02*
X1076000D01*
X1075250Y30813D02*
Y32313D01*
X0Y0D02*
M02*
