G05
M48
;#@! TF.GenerationSoftware,DesignSpark,DesignSpark PCB,11.0.5875
;#@! TF.CreationDate,2025-02-20T01:50:13+05:00*
;#@! TF.FileFunction,Plated,1,4,PTH
;FILE_FORMAT=3:5
;TYPE=PLATED
INCH,TZ
FMAT,2
T1C000.01600
T2C000.04000
T3C000.12992
%
T001
X1.37630Y0.86750
X1.47630Y0.77750
X3.95734Y1.14250
X3.98500Y0.14250
X3.98500Y0.79000
X4.03000Y0.21500
X4.07750Y0.47750
X4.07750Y0.72750
X4.14500Y1.18750
X4.24500Y1.01250
X4.26500Y0.54750
X4.32500Y1.01250
X4.36500Y0.53750
X4.49000Y0.30093
X4.53500Y0.16500
X4.58500Y1.18750
X4.61250Y0.72250
X4.72750Y0.76500
X4.75250Y0.57750
X4.84000Y0.72250
X4.84000Y0.96500
X4.88000Y0.26750
X4.88000Y0.33750
X4.96500Y1.18750
X5.06500Y0.30750
X5.06500Y1.01250
X5.14500Y1.01250
X5.40000Y1.18750
X5.45250Y0.91500
X5.49500Y0.26750
X5.51500Y0.41500
X5.51500Y0.75250
X5.56500Y0.86250
X5.57750Y0.28016
X5.62500Y0.76500
X5.67750Y0.36500
X5.78500Y1.18750
X5.88500Y1.01250
X5.92750Y0.45250
X5.96500Y1.01250
X6.22000Y1.18750
X6.30250Y0.80250
X6.40000Y0.91250
X6.46500Y0.81500
X6.50500Y0.24018
X6.50500Y0.74000
X6.53500Y0.21018
X6.60500Y1.18750
X6.70500Y1.01250
X6.78000Y1.01250
X6.91500Y0.56500
X6.96500Y0.35250
X7.04000Y0.15250
X7.04000Y1.18750
X7.11500Y0.81500
X7.11500Y0.89750
X7.15250Y0.56500
X7.25500Y0.20750
X7.25500Y0.82250
X7.25500Y0.89750
X7.29079Y0.59250
X7.38921Y1.14250
X7.43000Y0.59250
X7.45250Y0.46500
X7.46000Y1.18750
X7.46500Y0.71500
X7.56000Y1.01250
X7.64000Y1.01250
X7.69000Y0.15250
X7.69000Y1.23250
X7.72000Y0.18250
X7.72000Y0.87750
X7.90000Y1.18750
X7.95250Y0.86500
X8.05250Y0.16500
X8.10250Y0.88250
X8.32000Y1.18750
X8.35250Y0.17250
X8.42000Y1.01250
X8.47750Y0.23250
X8.47750Y0.94000
X8.48500Y1.01250
X8.54000Y0.24070
X8.62000Y1.20250
X8.72750Y0.14000
X8.75250Y0.87750
X8.75500Y1.18750
X8.94000Y0.87750
X9.15000Y1.18750
X9.23000Y0.19250
X9.23000Y0.41750
X9.28000Y1.01250
X9.29000Y0.32750
X9.35500Y1.01250
X9.37750Y0.09000
X9.39000Y0.30250
X9.43500Y0.26250
X9.43500Y1.20250
X9.51500Y1.23250
X9.56500Y0.56500
X9.61500Y1.18750
X9.64000Y0.85750
X9.66500Y0.47750
X9.74000Y0.47750
X9.77000Y0.13250
X9.79000Y0.56500
X9.81500Y0.85750
X9.99500Y1.18750
X10.05500Y0.13750
X10.05500Y0.53250
X10.09500Y1.01250
X10.10250Y0.86500
X10.17500Y1.01250
X10.24000Y0.84000
X10.29000Y0.59250
X10.43500Y1.18750
X10.46500Y0.41250
X10.46500Y0.69250
T002
X1.37390Y2.15239
X1.47390Y2.15240
X1.57388Y2.15239
X1.67388Y2.15239
X1.73215Y0.25152
X1.77388Y2.15239
X1.83215Y0.25152
X1.87388Y2.15239
X1.93215Y0.25152
X1.97388Y2.15239
X2.03215Y0.25152
X2.07388Y2.15239
X2.13215Y0.25152
X2.17388Y2.15239
X2.23213Y0.65652
X2.23215Y0.25152
X2.27388Y2.15239
X2.33213Y0.65652
X2.33215Y0.25152
X2.42750Y0.25250
X2.43215Y2.15152
X2.53215Y2.15152
X2.63215Y0.25152
X2.63215Y2.15152
X2.73215Y0.25152
X2.73215Y2.15152
X2.83215Y0.25152
X2.83215Y2.15152
X2.93215Y0.25152
X2.93215Y2.15152
X3.03215Y0.25152
X3.03215Y2.15152
X3.13215Y0.25152
T003
X0.80927Y0.13417
X0.80967Y2.22703
X3.69512Y2.23262
X3.69514Y0.13417
X3.94000Y1.32750
X6.19000Y0.54000
X8.10250Y0.54000
X10.64000Y0.20250
X10.64000Y1.24000
M30
