G04 DesignSpark PCB Gerber Version 11.0 Build 5877*
G04 #@! TF.Part,Single*
G04 #@! TF.FileFunction,Soldermask,Top*
G04 #@! TF.FilePolarity,Negative*
%FSLAX35Y35*%
%MOIN*%
G04 #@! TA.AperFunction,SMDPad,CuDef*
%ADD102R,0.01781X0.03750*%
%ADD113R,0.02372X0.02962*%
%ADD117R,0.02470X0.02569*%
%ADD111R,0.02962X0.03041*%
%ADD99R,0.02962X0.05324*%
%ADD112R,0.02962X0.05521*%
%ADD114R,0.04340X0.11624*%
%ADD107R,0.04576X0.07765*%
%ADD118R,0.04931X0.08474*%
%ADD104R,0.05324X0.13198*%
%ADD110R,0.06899X0.13198*%
%ADD105R,0.07293X0.21466*%
%ADD119R,0.03750X0.03750*%
%ADD101R,0.03750X0.01781*%
%ADD109R,0.02962X0.02372*%
%ADD116R,0.02569X0.02470*%
%ADD106R,0.03041X0.02962*%
%ADD100R,0.05324X0.02962*%
%ADD108R,0.05521X0.02962*%
%ADD127R,0.13198X0.05324*%
%ADD128R,0.21466X0.07293*%
%ADD103R,0.11624X0.11624*%
G04 #@! TA.AperFunction,ViaPad*
%ADD23C,0.03800*%
G04 #@! TA.AperFunction,WasherPad*
%ADD24C,0.07200*%
%ADD25C,0.14773*%
G04 #@! TA.AperFunction,SMDPad,CuDef*
%ADD115R,0.14100X0.10100*%
G04 #@! TD.AperFunction*
X0Y0D02*
D02*
D23*
X137630Y86750D03*
X147630Y77750D03*
X395734Y114250D03*
X398500Y14250D03*
Y79000D03*
X403000Y21500D03*
X407750Y47750D03*
Y72750D03*
X414500Y118750D03*
X424500Y101250D03*
X426500Y54750D03*
X432500Y101250D03*
X436500Y53750D03*
X449000Y30093D03*
X453500Y16500D03*
X458500Y118750D03*
X461250Y72250D03*
X472750Y76500D03*
X475250Y57750D03*
X484000Y72250D03*
Y96500D03*
X488000Y26750D03*
Y33750D03*
X496500Y118750D03*
X506500Y30750D03*
Y101250D03*
X514500D03*
X540000Y118750D03*
X545250Y91500D03*
X549500Y26750D03*
X551500Y41500D03*
Y75250D03*
X556500Y86250D03*
X557750Y28016D03*
X562500Y76500D03*
X567750Y36500D03*
X578500Y118750D03*
X588500Y101250D03*
X592750Y45250D03*
X596500Y101250D03*
X622000Y118750D03*
X630250Y80250D03*
X640000Y91250D03*
X646500Y81500D03*
X650500Y24018D03*
Y74000D03*
X653500Y21018D03*
X660500Y118750D03*
X670500Y101250D03*
X678000D03*
X691500Y56500D03*
X696500Y35250D03*
X704000Y15250D03*
Y118750D03*
X711500Y81500D03*
Y89750D03*
X715250Y56500D03*
X725500Y20750D03*
Y82250D03*
Y89750D03*
X729079Y59250D03*
X738921Y114250D03*
X743000Y59250D03*
X745250Y46500D03*
X746000Y118750D03*
X746500Y71500D03*
X756000Y101250D03*
X764000D03*
X769000Y15250D03*
Y123250D03*
X772000Y18250D03*
Y87750D03*
X790000Y118750D03*
X795250Y86500D03*
X805250Y16500D03*
X810250Y88250D03*
X832000Y118750D03*
X835250Y17250D03*
X842000Y101250D03*
X847750Y23250D03*
Y94000D03*
X848500Y101250D03*
X854000Y24070D03*
X862000Y120250D03*
X872750Y14000D03*
X875250Y87750D03*
X875500Y118750D03*
X894000Y87750D03*
X915000Y118750D03*
X923000Y19250D03*
Y41750D03*
X928000Y101250D03*
X929000Y32750D03*
X935500Y101250D03*
X937750Y9000D03*
X939000Y30250D03*
X943500Y26250D03*
Y120250D03*
X951500Y123250D03*
X956500Y56500D03*
X961500Y118750D03*
X964000Y85750D03*
X966500Y47750D03*
X974000D03*
X977000Y13250D03*
X979000Y56500D03*
X981500Y85750D03*
X999500Y118750D03*
X1005500Y13750D03*
Y53250D03*
X1009500Y101250D03*
X1010250Y86500D03*
X1017500Y101250D03*
X1024000Y84000D03*
X1029000Y59250D03*
X1043500Y118750D03*
X1046500Y41250D03*
Y69250D03*
D02*
D24*
X137390Y215239D03*
X147390Y215240D03*
X157388Y215239D03*
X167388D03*
X173215Y25152D03*
X177388Y215239D03*
X183215Y25152D03*
X187388Y215239D03*
X193215Y25152D03*
X197388Y215239D03*
X203215Y25152D03*
X207388Y215239D03*
X213215Y25152D03*
X217388Y215239D03*
X223213Y65652D03*
X223215Y25152D03*
X227388Y215239D03*
X233213Y65652D03*
X233215Y25152D03*
X242750Y25250D03*
X243215Y215152D03*
X253215D03*
X263215Y25152D03*
Y215152D03*
X273215Y25152D03*
Y215152D03*
X283215Y25152D03*
Y215152D03*
X293215Y25152D03*
Y215152D03*
X303215Y25152D03*
Y215152D03*
X313215Y25152D03*
D02*
D25*
X80927Y13417D03*
X80967Y222703D03*
X369512Y223262D03*
X369514Y13417D03*
X394000Y132750D03*
X619000Y54000D03*
X810250D03*
X1064000Y20250D03*
Y124000D03*
D02*
D99*
X426510Y19079D03*
Y28921D03*
X430250Y19079D03*
Y28921D03*
X433990Y19079D03*
Y28921D03*
D02*
D100*
X931579Y37760D03*
Y41500D03*
Y45240D03*
X941421Y37760D03*
Y41500D03*
Y45240D03*
D02*
D101*
X726126Y24079D03*
Y26047D03*
Y28016D03*
Y29984D03*
Y31953D03*
Y33921D03*
X741874Y24079D03*
Y26047D03*
Y28016D03*
Y29984D03*
Y31953D03*
Y33921D03*
D02*
D102*
X729079Y21126D03*
Y36874D03*
X731047Y21126D03*
Y36874D03*
X733016Y21126D03*
Y36874D03*
X734984Y21126D03*
Y36874D03*
X736953Y21126D03*
Y36874D03*
X738921Y21126D03*
Y36874D03*
D02*
D103*
X734000Y29000D03*
D02*
D104*
X424689Y111313D03*
X432563D03*
X440437D03*
X448311D03*
X506579D03*
X514453D03*
X522327D03*
X530201D03*
X588469D03*
X596343D03*
X604217D03*
X612091D03*
X670358D03*
X678232D03*
X686106D03*
X693980D03*
X756185D03*
X764059D03*
X771933D03*
X779807D03*
X842012D03*
X849886D03*
X857760D03*
X865634D03*
X927839D03*
X935713D03*
X943587D03*
X951461D03*
X1009689D03*
X1017563D03*
X1025437D03*
X1033311D03*
D02*
D105*
X414650Y132888D03*
X458350D03*
X496539D03*
X540240D03*
X578429D03*
X622130D03*
X660319D03*
X704020D03*
X746146D03*
X789846D03*
X831972D03*
X875673D03*
X917799D03*
X961500D03*
X999650D03*
X1043350D03*
D02*
D106*
X416500Y24689D03*
Y28311D03*
D02*
D107*
X426303Y46500D03*
X436697D03*
X930053Y19000D03*
X940447D03*
D02*
D108*
X494000Y26707D03*
Y33793D03*
D02*
D109*
X511500Y30880D03*
Y34620D03*
D02*
D110*
X542750Y16657D03*
Y36343D03*
X1006500Y23734D03*
Y43419D03*
D02*
D111*
X933439Y59000D03*
X937061D03*
D02*
D112*
X967957Y41500D03*
X975043D03*
D02*
D113*
X965880Y56500D03*
X969620D03*
D02*
D114*
X967337Y22750D03*
X978163D03*
D02*
D115*
X464000Y16250D03*
Y39250D03*
D02*
D116*
X465250Y76984D03*
Y81016D03*
X484000Y76984D03*
Y81016D03*
X551500Y81984D03*
Y86016D03*
X566500Y81984D03*
Y86016D03*
X631500Y86984D03*
Y91016D03*
X646500Y86984D03*
Y91016D03*
X719000Y85734D03*
Y89766D03*
X730250Y85734D03*
Y89766D03*
X746500Y59484D03*
Y63516D03*
X803567Y88234D03*
Y92266D03*
X816500Y88234D03*
Y92266D03*
X885250Y88234D03*
Y92266D03*
X902750Y88234D03*
Y92266D03*
X972750Y85734D03*
Y89766D03*
X990250Y85734D03*
Y89766D03*
X1017750Y86984D03*
Y91016D03*
X1030250Y84484D03*
Y88516D03*
D02*
D117*
X394484Y72750D03*
X395734Y86500D03*
X398516Y72750D03*
X399766Y86500D03*
D02*
D118*
X1041500Y17100D03*
D02*
D119*
Y24581D03*
D02*
D127*
X42937Y188439D03*
Y196313D03*
Y204187D03*
Y212061D03*
X1038213Y51313D03*
Y59187D03*
D02*
D128*
X21362Y178400D03*
Y222100D03*
X1059787Y41274D03*
Y69226D03*
X0Y0D02*
M02*
