G04 DesignSpark PCB Gerber Version 11.0 Build 5877*
G04 #@! TF.Part,Single*
G04 #@! TF.FileFunction,Other,Process Board - Bottom Documentation*
G04 #@! TF.FilePolarity,Positive*
%FSLAX35Y35*%
%MOIN*%
%ADD15C,0.00197*%
%ADD16C,0.00394*%
G04 #@! TD.AperFunction*
X0Y0D02*
D02*
D15*
X401126Y70585D02*
X391874D01*
Y74915D01*
X401126D01*
Y70585D01*
X402376Y84335D02*
X393124D01*
Y88665D01*
X402376D01*
Y84335D01*
X414689Y22917D02*
Y30083D01*
X418311D01*
Y22917D01*
X414689D01*
X423262Y15732D02*
Y32268D01*
X437238D01*
Y15732D01*
X423262D01*
X423724Y50673D02*
X439276D01*
Y42327D01*
X423724D01*
Y50673D01*
X463085Y74374D02*
Y83626D01*
X467415D01*
Y74374D01*
X463085D01*
X479748Y50077D02*
Y8350D01*
X448252D01*
Y50077D01*
X479748D01*
X481835Y74374D02*
Y83626D01*
X486165D01*
Y74374D01*
X481835D01*
X549335Y79374D02*
Y88626D01*
X553665D01*
Y79374D01*
X549335D01*
X559679Y49138D02*
Y7209D01*
X525821D01*
Y49138D01*
X559679D01*
X564335Y79374D02*
Y88626D01*
X568665D01*
Y79374D01*
X564335D01*
X629335Y84374D02*
Y93626D01*
X633665D01*
Y84374D01*
X629335D01*
X644335D02*
Y93626D01*
X648665D01*
Y84374D01*
X644335D01*
X716835Y83124D02*
Y92376D01*
X721165D01*
Y83124D01*
X716835D01*
X723665Y39335D02*
X744335D01*
Y18665D01*
X723665D01*
Y39335D01*
X732415Y92376D02*
Y83124D01*
X728085D01*
Y92376D01*
X732415D01*
X748665Y66126D02*
Y56874D01*
X744335D01*
Y66126D01*
X748665D01*
X801402Y85624D02*
Y94876D01*
X805732D01*
Y85624D01*
X801402D01*
X814335D02*
Y94876D01*
X818665D01*
Y85624D01*
X814335D01*
X883085D02*
Y94876D01*
X887415D01*
Y85624D01*
X883085D01*
X900585D02*
Y94876D01*
X904915D01*
Y85624D01*
X900585D01*
X928232Y48488D02*
X944768D01*
Y34512D01*
X928232D01*
Y48488D01*
X931667Y60811D02*
X938833D01*
Y57189D01*
X931667D01*
Y60811D01*
X943026Y14827D02*
X927474D01*
Y23173D01*
X943026D01*
Y14827D01*
X963596Y29246D02*
X981904D01*
Y16254D01*
X963596D01*
Y29246D01*
X970585Y83124D02*
Y92376D01*
X974915D01*
Y83124D01*
X970585D01*
X988085D02*
Y92376D01*
X992415D01*
Y83124D01*
X988085D01*
X1015585Y84374D02*
Y93626D01*
X1019915D01*
Y84374D01*
X1015585D01*
X1023429Y56215D02*
Y14285D01*
X989571D01*
Y56215D01*
X1023429D01*
X1028085Y81874D02*
Y91126D01*
X1032415D01*
Y81874D01*
X1028085D01*
D02*
D16*
X56953Y229384D02*
Y171116D01*
X6559D01*
Y229384D01*
X56953D01*
X465634Y97297D02*
X407366D01*
Y147691D01*
X465634D01*
Y97297D01*
X500398Y38911D02*
Y21589D01*
X487602D01*
Y38911D01*
X500398D01*
X514650Y37474D02*
Y28026D01*
X508350D01*
Y37474D01*
X514650D01*
X547524Y97297D02*
X489256D01*
Y147691D01*
X547524D01*
Y97297D01*
X629413D02*
X571146D01*
Y147691D01*
X629413D01*
Y97297D01*
X711303D02*
X653035D01*
Y147691D01*
X711303D01*
Y97297D01*
X797130D02*
X738862D01*
Y147691D01*
X797130D01*
Y97297D01*
X882957D02*
X824689D01*
Y147691D01*
X882957D01*
Y97297D01*
X962839Y47898D02*
X980161D01*
Y35102D01*
X962839D01*
Y47898D01*
X963026Y59650D02*
X972474D01*
Y53350D01*
X963026D01*
Y59650D01*
X968783Y97297D02*
X910516D01*
Y147691D01*
X968783D01*
Y97297D01*
X1027976Y33990D02*
Y76510D01*
X1074157D01*
Y33990D01*
X1027976D01*
X1035004Y9226D02*
Y30093D01*
X1047996D01*
Y9226D01*
X1035004D01*
X1050634Y97297D02*
X992366D01*
Y147691D01*
X1050634D01*
Y97297D01*
X0Y0D02*
M02*
