G04 DesignSpark PCB Gerber Version 11.0 Build 5877*
G04 #@! TF.Part,Single*
G04 #@! TF.FileFunction,Copper,L1,Top*
G04 #@! TF.FilePolarity,Positive*
%FSLAX35Y35*%
%MOIN*%
G04 #@! TA.AperFunction,SMDPad,CuDef*
%ADD80R,0.01181X0.03150*%
%ADD79R,0.03150X0.01181*%
%ADD91R,0.01772X0.02362*%
%ADD95R,0.01870X0.01969*%
%ADD89R,0.02362X0.02441*%
%ADD77R,0.02362X0.04724*%
%ADD90R,0.02362X0.04921*%
%ADD92R,0.03740X0.11024*%
%ADD85R,0.03976X0.07165*%
%ADD96R,0.04331X0.07874*%
%ADD82R,0.04724X0.12598*%
%ADD88R,0.06299X0.12598*%
%ADD83R,0.06693X0.20866*%
%ADD97R,0.03150X0.03150*%
%ADD87R,0.02362X0.01772*%
%ADD94R,0.01969X0.01870*%
%ADD84R,0.02441X0.02362*%
%ADD78R,0.04724X0.02362*%
%ADD86R,0.04921X0.02362*%
%ADD125R,0.12598X0.04724*%
%ADD126R,0.20866X0.06693*%
%ADD81R,0.11024X0.11024*%
G04 #@! TD.AperFunction*
%ADD18C,0.00800*%
%ADD16C,0.01181*%
G04 #@! TA.AperFunction,ViaPad*
%ADD19C,0.03200*%
G04 #@! TA.AperFunction,WasherPad*
%ADD70C,0.06600*%
%ADD71C,0.14173*%
G04 #@! TA.AperFunction,SMDPad,CuDef*
%ADD93R,0.13500X0.09500*%
G04 #@! TD.AperFunction*
X0Y0D02*
D02*
D16*
X398500Y79000D02*
Y84000D01*
X399766Y85266D01*
Y86500D01*
X398500Y79000D02*
Y72750D01*
X398516D01*
X407750Y47750D02*
X395250Y35250D01*
X254000D01*
X247750Y29000D01*
X246500D01*
X242750Y25250D01*
X407750Y72750D02*
X398516D01*
X414500Y118750D02*
X414650D01*
Y132888D01*
X424500Y101250D02*
X424689D01*
Y111313D01*
X426500Y54750D02*
X426303D01*
Y46500D01*
X430250Y19079D02*
Y16311D01*
X427939Y14000D01*
X410500D01*
X403000Y21500D01*
X432500Y101250D02*
X432563D01*
Y111313D01*
X433990Y28921D02*
X434000Y28750D01*
X430500D01*
X430250Y28921D01*
X434000Y12750D02*
X444000D01*
X447750Y16500D01*
X453500D01*
X434000Y12750D02*
Y16500D01*
X433990D01*
Y19079D01*
X434000Y12750D02*
Y10250D01*
X398500D01*
Y14250D01*
X436500Y53750D02*
X436697D01*
Y46500D01*
X449000Y30093D02*
X445407D01*
X439000Y36500D01*
X431500D01*
X430250Y35250D01*
Y28921D01*
X453500Y16500D02*
X459000D01*
Y16250D01*
X464000D01*
X458500Y118750D02*
X458350D01*
Y132888D01*
X461250Y72250D02*
X463018D01*
X465250Y74482D01*
Y76984D01*
X484000Y72250D02*
Y76984D01*
X488000Y26750D02*
X494000D01*
Y26707D01*
X488000Y33750D02*
X494000D01*
Y33793D01*
X496500Y118750D02*
X496539D01*
Y132888D01*
X506500Y30750D02*
X511500D01*
Y30880D01*
X506500Y101250D02*
X506579D01*
Y111313D01*
X511500Y34620D02*
Y37750D01*
X517750Y44000D01*
X530250D01*
X532750Y41500D01*
Y37593D01*
X534000Y36343D01*
X542750D01*
X511500Y34620D02*
X517750Y34750D01*
X519000Y33500D01*
Y21500D01*
X517750Y20250D01*
X505250D01*
X502000Y23500D01*
Y30906D01*
X499112Y33793D01*
X494000D01*
X514500Y101250D02*
X514453D01*
Y111313D01*
X540000Y118750D02*
X540240D01*
Y132888D01*
X549500Y26750D02*
X542750D01*
Y16657D01*
X551500Y75250D02*
Y81984D01*
X562500Y76500D02*
X564268D01*
X566500Y78732D01*
Y81984D01*
X578500Y118750D02*
X578429D01*
Y132888D01*
X588500Y101250D02*
X588469D01*
Y111313D01*
X596500Y101250D02*
X596343D01*
Y111313D01*
X622000Y118750D02*
X622130D01*
Y132888D01*
X630250Y80250D02*
Y84000D01*
X631500D01*
Y86984D01*
X646500Y81500D02*
Y86984D01*
X660500Y118750D02*
X660319D01*
Y132888D01*
X670500Y101250D02*
X670358D01*
Y111313D01*
X678000Y101250D02*
X678232D01*
Y111313D01*
X691500Y56500D02*
Y61500D01*
X695250Y65250D01*
X731500D01*
Y64734D01*
X734984Y61250D01*
Y36874D01*
X704000Y118750D02*
X704020D01*
Y132888D01*
X719000Y85734D02*
X713234D01*
X711500Y84000D01*
Y81500D01*
X725500Y89750D02*
Y89766D01*
X730250D01*
X733016Y36874D02*
X731047D01*
X733016D02*
X732750Y37140D01*
Y60250D01*
X730250Y62750D01*
X717750D01*
X715250Y60250D01*
Y56500D01*
X745250Y46500D02*
X741874Y43124D01*
Y33921D01*
X746000Y118750D02*
X746146D01*
Y132888D01*
X746500Y71500D02*
Y63516D01*
X756000Y101250D02*
X756185D01*
Y111313D01*
X764000Y101250D02*
X764059D01*
Y111313D01*
X790000Y118750D02*
X789846D01*
Y132888D01*
X803567Y88234D02*
X796984D01*
X795250Y86500D01*
X810250Y88250D02*
X816500D01*
Y88234D01*
X814000Y12250D02*
X736570D01*
X733016Y15804D01*
Y21126D01*
X814000Y12250D02*
X809750Y16500D01*
X805250D01*
X814000Y12250D02*
X853000D01*
X854750Y14000D01*
X872750D01*
X832000Y118750D02*
X831972D01*
Y132888D01*
X842000Y101250D02*
X842012D01*
Y111313D01*
X848500Y101250D02*
X849886D01*
Y111313D01*
X875250Y87750D02*
Y88234D01*
X885250D01*
X875500Y118750D02*
X875673D01*
Y132888D01*
X894000Y87750D02*
Y88234D01*
X902750D01*
X915000Y118750D02*
X917799D01*
Y132888D01*
X923000Y19250D02*
X930053D01*
Y19000D01*
X923000Y41750D02*
Y41500D01*
X931579D01*
X928000Y101250D02*
X927839D01*
Y111313D01*
X929000Y32750D02*
Y37760D01*
X931579D01*
X935500Y101250D02*
X935713D01*
Y111313D01*
X937750Y9000D02*
X488250D01*
X483500Y13750D01*
Y24250D01*
X478500Y29250D01*
X463000D01*
X459000Y25250D01*
X451500D01*
X450250Y24000D01*
X443000D01*
X438079Y28921D01*
X433990D01*
X937750Y9000D02*
X940447Y11697D01*
Y19000D01*
X937750Y9000D02*
X1033400D01*
X1041500Y17100D01*
X939000Y37750D02*
X941421Y37760D01*
X939000Y37750D02*
Y30250D01*
Y37750D02*
Y41500D01*
X941421D01*
X956500Y56500D02*
X965880D01*
X961500Y118750D02*
Y132888D01*
X964000Y85750D02*
X972750D01*
Y85734D01*
X966500Y47750D02*
X967957D01*
Y41500D01*
X974000Y47750D02*
X975043D01*
Y41500D01*
X977000Y13250D02*
X978163D01*
Y22750D01*
X979000Y56500D02*
X969620D01*
X981500Y85750D02*
X990250D01*
Y85734D01*
X999500Y118750D02*
X999650D01*
Y132888D01*
X1005500Y13750D02*
X1006500D01*
Y23734D01*
X1005500Y53250D02*
X1006500D01*
Y43419D01*
X1009500Y101250D02*
X1009689D01*
Y111313D01*
X1010250Y86500D02*
X1017750D01*
Y86984D01*
X1017500Y101250D02*
X1017563D01*
Y111313D01*
X1024000Y84000D02*
Y84484D01*
X1030250D01*
X1029000Y59250D02*
Y59187D01*
X1038213D01*
Y51313D02*
Y27868D01*
X1041500Y24581D01*
X1043500Y118750D02*
X1043350D01*
Y132888D01*
X1046500Y41250D02*
Y41274D01*
X1059787D01*
X1046500Y69250D02*
Y69226D01*
X1059787D01*
D02*
D18*
X42937Y188439D02*
X113311D01*
X119000Y182750D01*
Y82750D01*
X139000Y62750D01*
X205250D01*
X210250Y57750D01*
X225311D01*
X233213Y65652D01*
X42937Y196313D02*
X119187D01*
X131500Y184000D01*
Y79000D01*
X140250Y70250D01*
X218614D01*
X223213Y65652D01*
X42937Y204187D02*
X114187D01*
X130250Y220250D01*
X132378D01*
X137390Y215239D01*
X42937Y212061D02*
X109561D01*
X124000Y226500D01*
X144000D01*
X147750Y222750D01*
Y215600D01*
X147390Y215240D01*
X147630Y77750D02*
X153880Y84000D01*
X321500D01*
X326500Y79000D01*
X386500D01*
X392750Y72750D01*
X394484D01*
X357750Y86750D02*
X360250Y89250D01*
Y92750D01*
X381750Y114250D01*
X395734D01*
X357750Y86750D02*
X395484D01*
X395734Y86500D01*
X357750Y86750D02*
X137630D01*
X394484Y72750D02*
Y70982D01*
X397217Y68250D01*
X731953D01*
X736953Y63250D01*
Y36874D01*
X416500Y24689D02*
Y19079D01*
X426510D01*
Y28921D02*
Y36500D01*
X429260Y39250D01*
X464000D01*
X426510Y28921D02*
X422750D01*
X422140Y28311D01*
X416500D01*
X465250Y81016D02*
X445437D01*
X440437Y86016D01*
Y111313D01*
X472750Y76500D02*
X468234Y81016D01*
X465250D01*
X475250Y57750D02*
X480250D01*
X482750Y55250D01*
X575250D01*
X585250Y45250D01*
X592750D01*
X484000Y96500D02*
Y81016D01*
Y96500D02*
X449561D01*
X448311Y97750D01*
Y111313D01*
X545250Y91500D02*
X562783D01*
X566500Y87783D01*
Y86016D01*
X545250Y91500D02*
X532951D01*
X530201Y94250D01*
Y111313D01*
X551500Y41500D02*
X552750D01*
X560250Y34000D01*
X566500D01*
X569000Y31500D01*
X689000D01*
X690250Y30250D01*
X719985D01*
X720117Y30117D01*
X720250Y29984D01*
X726126D01*
X551500Y86016D02*
X522327D01*
Y111313D01*
X556500Y86250D02*
X551500D01*
Y86016D01*
X557750Y28016D02*
X726126D01*
X567750Y36500D02*
X573921D01*
X576500Y33921D01*
X683921D01*
X689000Y39000D01*
X715250D01*
X717750Y36500D01*
X720171D01*
X722750Y33921D01*
X726126D01*
X631500Y91016D02*
X609217D01*
X604217Y96016D01*
Y111313D01*
X640000Y91250D02*
X631500D01*
Y91016D01*
X646500D02*
Y111250D01*
X612000D01*
X612091Y111313D01*
X650500Y24018D02*
X652530Y26047D01*
X726126D01*
X650500Y74000D02*
Y88783D01*
X648268Y91016D01*
X646500D01*
X653500Y21018D02*
X656561Y24079D01*
X726126D01*
X696500Y35250D02*
X699453D01*
X702750Y31953D01*
X726126D01*
X704000Y15250D02*
X726939D01*
X731047Y19358D01*
Y21126D01*
X711500Y89766D02*
X719000D01*
X711500D02*
Y89750D01*
Y89766D02*
X686106D01*
Y111313D01*
X725500Y20750D02*
X729079D01*
Y21126D01*
X725500Y82250D02*
Y84018D01*
X727217Y85734D01*
X730250D01*
X729079Y59250D02*
Y36874D01*
X730250Y85734D02*
X732018D01*
X734000Y87717D01*
Y111250D01*
X694000D01*
X693980Y111313D01*
X738921Y114250D02*
Y36874D01*
X743000Y59250D02*
X746500D01*
Y59484D01*
X769000Y15250D02*
X737830D01*
X734984Y18095D01*
Y21126D01*
X769000Y123250D02*
X779807D01*
Y111313D01*
X771933Y94333D02*
Y111313D01*
Y94333D02*
Y87750D01*
X772000D01*
X771933Y94333D02*
X774000Y92266D01*
X803567D01*
X772000Y18250D02*
X736953D01*
Y21126D01*
X779807Y111313D02*
X780000Y111250D01*
X811500D01*
X816500Y106250D01*
Y92266D01*
X835250Y17250D02*
X834002D01*
X830250Y21002D01*
X738921D01*
Y21126D01*
X847750Y23250D02*
Y24079D01*
X741874D01*
X854000Y24070D02*
X852022Y26047D01*
X741874D01*
X857760Y97250D02*
X854510Y94000D01*
X847750D01*
X857760Y97250D02*
Y111313D01*
Y97250D02*
Y92266D01*
X885250D01*
X862000Y120250D02*
X863768D01*
X865634Y118384D01*
Y111313D01*
X865500Y111250D01*
X902500D01*
Y92266D01*
X902750D01*
X931579Y45240D02*
Y57140D01*
X933439Y59000D01*
X941421Y45240D02*
Y45250D01*
X951500D01*
X956500Y40250D01*
Y32750D01*
X966500Y22750D01*
X967337D01*
X941421Y45240D02*
X938843Y47819D01*
Y50250D01*
X937061Y52031D01*
Y59000D01*
X943500Y26250D02*
X935250D01*
X933250Y28250D01*
X742000D01*
X741874Y28016D01*
X943500Y120250D02*
X943587D01*
Y111313D01*
Y91016D01*
X944837Y89766D01*
X972750D01*
X951500Y111250D02*
X986750D01*
X990250Y107750D01*
Y89766D01*
X951500Y111250D02*
X951461Y111313D01*
X951500Y111250D02*
Y123250D01*
X1017750Y91016D02*
Y95250D01*
X1020250Y97750D01*
X1021500D01*
X1025250Y101500D01*
Y111126D01*
X1025437Y111313D01*
X1017750Y91016D02*
Y90250D01*
X1007750D01*
X995250Y77750D01*
X753500D01*
X751000Y75250D01*
Y35632D01*
X747321Y31953D01*
X741874D01*
X1030250Y88516D02*
X1033234D01*
X1035250Y86500D01*
Y81500D01*
X1034000Y80250D01*
X1002750D01*
X997750Y75250D01*
X929000D01*
X920250Y66500D01*
Y52750D01*
X897484Y29984D01*
X741874D01*
X1030250Y88516D02*
Y94132D01*
X1032618Y96500D01*
Y111313D01*
X1033311D01*
D02*
D19*
X137630Y86750D03*
X147630Y77750D03*
X395734Y114250D03*
X398500Y14250D03*
Y79000D03*
X403000Y21500D03*
X407750Y47750D03*
Y72750D03*
X414500Y118750D03*
X424500Y101250D03*
X426500Y54750D03*
X432500Y101250D03*
X436500Y53750D03*
X449000Y30093D03*
X453500Y16500D03*
X458500Y118750D03*
X461250Y72250D03*
X472750Y76500D03*
X475250Y57750D03*
X484000Y72250D03*
Y96500D03*
X488000Y26750D03*
Y33750D03*
X496500Y118750D03*
X506500Y30750D03*
Y101250D03*
X514500D03*
X540000Y118750D03*
X545250Y91500D03*
X549500Y26750D03*
X551500Y41500D03*
Y75250D03*
X556500Y86250D03*
X557750Y28016D03*
X562500Y76500D03*
X567750Y36500D03*
X578500Y118750D03*
X588500Y101250D03*
X592750Y45250D03*
X596500Y101250D03*
X622000Y118750D03*
X630250Y80250D03*
X640000Y91250D03*
X646500Y81500D03*
X650500Y24018D03*
Y74000D03*
X653500Y21018D03*
X660500Y118750D03*
X670500Y101250D03*
X678000D03*
X691500Y56500D03*
X696500Y35250D03*
X704000Y15250D03*
Y118750D03*
X711500Y81500D03*
Y89750D03*
X715250Y56500D03*
X725500Y20750D03*
Y82250D03*
Y89750D03*
X729079Y59250D03*
X738921Y114250D03*
X743000Y59250D03*
X745250Y46500D03*
X746000Y118750D03*
X746500Y71500D03*
X756000Y101250D03*
X764000D03*
X769000Y15250D03*
Y123250D03*
X772000Y18250D03*
Y87750D03*
X790000Y118750D03*
X795250Y86500D03*
X805250Y16500D03*
X810250Y88250D03*
X832000Y118750D03*
X835250Y17250D03*
X842000Y101250D03*
X847750Y23250D03*
Y94000D03*
X848500Y101250D03*
X854000Y24070D03*
X862000Y120250D03*
X872750Y14000D03*
X875250Y87750D03*
X875500Y118750D03*
X894000Y87750D03*
X915000Y118750D03*
X923000Y19250D03*
Y41750D03*
X928000Y101250D03*
X929000Y32750D03*
X935500Y101250D03*
X937750Y9000D03*
X939000Y30250D03*
X943500Y26250D03*
Y120250D03*
X951500Y123250D03*
X956500Y56500D03*
X961500Y118750D03*
X964000Y85750D03*
X966500Y47750D03*
X974000D03*
X977000Y13250D03*
X979000Y56500D03*
X981500Y85750D03*
X999500Y118750D03*
X1005500Y13750D03*
Y53250D03*
X1009500Y101250D03*
X1010250Y86500D03*
X1017500Y101250D03*
X1024000Y84000D03*
X1029000Y59250D03*
X1043500Y118750D03*
X1046500Y41250D03*
Y69250D03*
D02*
D70*
X137390Y215239D03*
X147390Y215240D03*
X157388Y215239D03*
X167388D03*
X173215Y25152D03*
X177388Y215239D03*
X183215Y25152D03*
X187388Y215239D03*
X193215Y25152D03*
X197388Y215239D03*
X203215Y25152D03*
X207388Y215239D03*
X213215Y25152D03*
X217388Y215239D03*
X223213Y65652D03*
X223215Y25152D03*
X227388Y215239D03*
X233213Y65652D03*
X233215Y25152D03*
X242750Y25250D03*
X243215Y215152D03*
X253215D03*
X263215Y25152D03*
Y215152D03*
X273215Y25152D03*
Y215152D03*
X283215Y25152D03*
Y215152D03*
X293215Y25152D03*
Y215152D03*
X303215Y25152D03*
Y215152D03*
X313215Y25152D03*
D02*
D71*
X80927Y13417D03*
X80967Y222703D03*
X369512Y223262D03*
X369514Y13417D03*
X394000Y132750D03*
X619000Y54000D03*
X810250D03*
X1064000Y20250D03*
Y124000D03*
D02*
D77*
X426510Y19079D03*
Y28921D03*
X430250Y19079D03*
Y28921D03*
X433990Y19079D03*
Y28921D03*
D02*
D78*
X931579Y37760D03*
Y41500D03*
Y45240D03*
X941421Y37760D03*
Y41500D03*
Y45240D03*
D02*
D79*
X726126Y24079D03*
Y26047D03*
Y28016D03*
Y29984D03*
Y31953D03*
Y33921D03*
X741874Y24079D03*
Y26047D03*
Y28016D03*
Y29984D03*
Y31953D03*
Y33921D03*
D02*
D80*
X729079Y21126D03*
Y36874D03*
X731047Y21126D03*
Y36874D03*
X733016Y21126D03*
Y36874D03*
X734984Y21126D03*
Y36874D03*
X736953Y21126D03*
Y36874D03*
X738921Y21126D03*
Y36874D03*
D02*
D81*
X734000Y29000D03*
D02*
D82*
X424689Y111313D03*
X432563D03*
X440437D03*
X448311D03*
X506579D03*
X514453D03*
X522327D03*
X530201D03*
X588469D03*
X596343D03*
X604217D03*
X612091D03*
X670358D03*
X678232D03*
X686106D03*
X693980D03*
X756185D03*
X764059D03*
X771933D03*
X779807D03*
X842012D03*
X849886D03*
X857760D03*
X865634D03*
X927839D03*
X935713D03*
X943587D03*
X951461D03*
X1009689D03*
X1017563D03*
X1025437D03*
X1033311D03*
D02*
D83*
X414650Y132888D03*
X458350D03*
X496539D03*
X540240D03*
X578429D03*
X622130D03*
X660319D03*
X704020D03*
X746146D03*
X789846D03*
X831972D03*
X875673D03*
X917799D03*
X961500D03*
X999650D03*
X1043350D03*
D02*
D84*
X416500Y24689D03*
Y28311D03*
D02*
D85*
X426303Y46500D03*
X436697D03*
X930053Y19000D03*
X940447D03*
D02*
D86*
X494000Y26707D03*
Y33793D03*
D02*
D87*
X511500Y30880D03*
Y34620D03*
D02*
D88*
X542750Y16657D03*
Y36343D03*
X1006500Y23734D03*
Y43419D03*
D02*
D89*
X933439Y59000D03*
X937061D03*
D02*
D90*
X967957Y41500D03*
X975043D03*
D02*
D91*
X965880Y56500D03*
X969620D03*
D02*
D92*
X967337Y22750D03*
X978163D03*
D02*
D93*
X464000Y16250D03*
Y39250D03*
D02*
D94*
X465250Y76984D03*
Y81016D03*
X484000Y76984D03*
Y81016D03*
X551500Y81984D03*
Y86016D03*
X566500Y81984D03*
Y86016D03*
X631500Y86984D03*
Y91016D03*
X646500Y86984D03*
Y91016D03*
X719000Y85734D03*
Y89766D03*
X730250Y85734D03*
Y89766D03*
X746500Y59484D03*
Y63516D03*
X803567Y88234D03*
Y92266D03*
X816500Y88234D03*
Y92266D03*
X885250Y88234D03*
Y92266D03*
X902750Y88234D03*
Y92266D03*
X972750Y85734D03*
Y89766D03*
X990250Y85734D03*
Y89766D03*
X1017750Y86984D03*
Y91016D03*
X1030250Y84484D03*
Y88516D03*
D02*
D95*
X394484Y72750D03*
X395734Y86500D03*
X398516Y72750D03*
X399766Y86500D03*
D02*
D96*
X1041500Y17100D03*
D02*
D97*
Y24581D03*
D02*
D125*
X42937Y188439D03*
Y196313D03*
Y204187D03*
Y212061D03*
X1038213Y51313D03*
Y59187D03*
D02*
D126*
X21362Y178400D03*
Y222100D03*
X1059787Y41274D03*
Y69226D03*
X0Y0D02*
M02*
