G04 DesignSpark PCB Gerber Version 11.0 Build 5877*
G04 #@! TF.Part,Single*
G04 #@! TF.FileFunction,Copper,L4,Bot*
G04 #@! TF.FilePolarity,Positive*
%FSLAX35Y35*%
%MOIN*%
%ADD12C,0.00800*%
%ADD10C,0.01181*%
G04 #@! TA.AperFunction,ViaPad*
%ADD11C,0.03200*%
G04 #@! TA.AperFunction,WasherPad*
%ADD13C,0.06600*%
%ADD14C,0.14173*%
G04 #@! TD.AperFunction*
X0Y0D02*
D02*
D10*
X398500Y14250D02*
Y31000D01*
X415250Y47750D01*
Y76500D01*
X410250Y81500D01*
X401000D01*
X398500Y79000D01*
X407750Y47750D02*
Y72750D01*
X449000Y30093D02*
Y55250D01*
X444000Y60250D01*
X429616D01*
X426500Y57134D01*
Y54750D01*
X453500Y16500D02*
Y28750D01*
X458500Y33750D01*
X488000D01*
X805250Y16500D02*
X797750Y9000D01*
X764000D01*
X761500Y11500D01*
Y42750D01*
X757750Y46500D01*
X745250D01*
X937750Y9000D02*
Y19000D01*
X939000D01*
Y30250D01*
D02*
D11*
X137630Y86750D03*
X147630Y77750D03*
X395734Y114250D03*
X398500Y14250D03*
Y79000D03*
X403000Y21500D03*
X407750Y47750D03*
Y72750D03*
X414500Y118750D03*
X424500Y101250D03*
X426500Y54750D03*
X432500Y101250D03*
X436500Y53750D03*
X449000Y30093D03*
X453500Y16500D03*
X458500Y118750D03*
X461250Y72250D03*
X472750Y76500D03*
X475250Y57750D03*
X484000Y72250D03*
Y96500D03*
X488000Y26750D03*
Y33750D03*
X496500Y118750D03*
X506500Y30750D03*
Y101250D03*
X514500D03*
X540000Y118750D03*
X545250Y91500D03*
X549500Y26750D03*
X551500Y41500D03*
Y75250D03*
X556500Y86250D03*
X557750Y28016D03*
X562500Y76500D03*
X567750Y36500D03*
X578500Y118750D03*
X588500Y101250D03*
X592750Y45250D03*
X596500Y101250D03*
X622000Y118750D03*
X630250Y80250D03*
X640000Y91250D03*
X646500Y81500D03*
X650500Y24018D03*
Y74000D03*
X653500Y21018D03*
X660500Y118750D03*
X670500Y101250D03*
X678000D03*
X691500Y56500D03*
X696500Y35250D03*
X704000Y15250D03*
Y118750D03*
X711500Y81500D03*
Y89750D03*
X715250Y56500D03*
X725500Y20750D03*
Y82250D03*
Y89750D03*
X729079Y59250D03*
X738921Y114250D03*
X743000Y59250D03*
X745250Y46500D03*
X746000Y118750D03*
X746500Y71500D03*
X756000Y101250D03*
X764000D03*
X769000Y15250D03*
Y123250D03*
X772000Y18250D03*
Y87750D03*
X790000Y118750D03*
X795250Y86500D03*
X805250Y16500D03*
X810250Y88250D03*
X832000Y118750D03*
X835250Y17250D03*
X842000Y101250D03*
X847750Y23250D03*
Y94000D03*
X848500Y101250D03*
X854000Y24070D03*
X862000Y120250D03*
X872750Y14000D03*
X875250Y87750D03*
X875500Y118750D03*
X894000Y87750D03*
X915000Y118750D03*
X923000Y19250D03*
Y41750D03*
X928000Y101250D03*
X929000Y32750D03*
X935500Y101250D03*
X937750Y9000D03*
X939000Y30250D03*
X943500Y26250D03*
Y120250D03*
X951500Y123250D03*
X956500Y56500D03*
X961500Y118750D03*
X964000Y85750D03*
X966500Y47750D03*
X974000D03*
X977000Y13250D03*
X979000Y56500D03*
X981500Y85750D03*
X999500Y118750D03*
X1005500Y13750D03*
Y53250D03*
X1009500Y101250D03*
X1010250Y86500D03*
X1017500Y101250D03*
X1024000Y84000D03*
X1029000Y59250D03*
X1043500Y118750D03*
X1046500Y41250D03*
Y69250D03*
D02*
D12*
X137630Y86750D02*
Y215239D01*
X137390D01*
X147630Y77750D02*
Y215240D01*
X147390D01*
X475250Y57750D02*
X472750Y60250D01*
Y76500D01*
X551500Y41500D02*
Y45250D01*
X545250Y51500D01*
Y91500D01*
X557750Y28016D02*
Y65250D01*
X556500Y66500D01*
Y86250D01*
X567750Y36500D02*
Y93250D01*
X564500Y96500D01*
X484000D01*
X592750Y45250D02*
X622750Y15250D01*
X672750D01*
X692750Y35250D01*
X696500D01*
X650500Y24018D02*
Y74000D01*
X653500Y21018D02*
Y92750D01*
X648500Y97750D01*
X641250D01*
X640000Y96500D01*
Y91250D01*
X704000Y15250D02*
Y84765D01*
X708985Y89750D01*
X711500D01*
X725500Y20750D02*
Y82250D01*
X729079Y59250D02*
X743000D01*
X738921Y114250D02*
X395734D01*
X769000Y15250D02*
Y123250D01*
X772000Y18250D02*
Y87750D01*
X835250Y17250D02*
X857000D01*
X862000Y22250D01*
Y120250D01*
X847750Y23250D02*
Y94000D01*
X854000Y24070D02*
Y118250D01*
X859000Y123250D01*
X951500D01*
X943500Y26250D02*
Y120250D01*
D02*
D13*
X137390Y215239D03*
X147390Y215240D03*
X157388Y215239D03*
X167388D03*
X173215Y25152D03*
X177388Y215239D03*
X183215Y25152D03*
X187388Y215239D03*
X193215Y25152D03*
X197388Y215239D03*
X203215Y25152D03*
X207388Y215239D03*
X213215Y25152D03*
X217388Y215239D03*
X223213Y65652D03*
X223215Y25152D03*
X227388Y215239D03*
X233213Y65652D03*
X233215Y25152D03*
X242750Y25250D03*
X243215Y215152D03*
X253215D03*
X263215Y25152D03*
Y215152D03*
X273215Y25152D03*
Y215152D03*
X283215Y25152D03*
Y215152D03*
X293215Y25152D03*
Y215152D03*
X303215Y25152D03*
Y215152D03*
X313215Y25152D03*
D02*
D14*
X80927Y13417D03*
X80967Y222703D03*
X369512Y223262D03*
X369514Y13417D03*
X394000Y132750D03*
X619000Y54000D03*
X810250D03*
X1064000Y20250D03*
Y124000D03*
X0Y0D02*
M02*
