G04 DesignSpark PCB Gerber Version 11.0 Build 5877*
G04 #@! TF.Part,Single*
G04 #@! TF.FileFunction,Copper,L2,Bot*
G04 #@! TF.FilePolarity,Positive*
%FSLAX35Y35*%
%MOIN*%
G04 #@! TA.AperFunction,ViaPad*
%AMT26*0 Hexagon Pad at angle 0*4,1,6,-0.03937,-0.02273,-0.03937,0.02273,0.00001,0.04546,0.03937,0.02273,0.03937,-0.02273,0.00001,-0.04546,-0.03937,-0.02273,0*%
%ADD26T26*%
%AMT27*0 Hexagon Pad at angle 0*4,1,6,-0.06890,-0.03978,-0.06890,0.03978,0.00001,0.07956,0.06890,0.03978,0.06890,-0.03978,0.00001,-0.07956,-0.06890,-0.03978,0*%
%ADD27T27*%
%AMT24*0 Octagon Pad at angle 0*4,1,8,-0.02854,-0.06890,0.02854,-0.06890,0.06890,-0.02854,0.06890,0.02854,0.02854,0.06890,-0.02854,0.06890,-0.06890,0.02854,-0.06890,-0.02854,-0.02854,-0.06890,0*%
%ADD24T24*%
%ADD28R,0.13780X0.13780*%
G04 #@! TD.AperFunction*
%ADD23C,0.00200*%
G04 #@! TA.AperFunction,ViaPad*
%ADD11C,0.03200*%
%ADD25C,0.13780*%
G04 #@! TA.AperFunction,SMDPad,CuDef*
%ADD77R,0.05709X0.03740*%
G04 #@! TD.AperFunction*
X0Y0D02*
D02*
D11*
X12219Y259831D03*
X16219Y193331D03*
Y215831D03*
X17250Y77831D03*
X18750Y225831D03*
X19219Y240831D03*
X37750Y246331D03*
X40250Y110831D03*
X45750Y259831D03*
X49750Y190831D03*
X50750Y215331D03*
X52250Y239831D03*
X79250Y259331D03*
X83250Y192831D03*
Y215331D03*
X84281Y77331D03*
X85781Y225331D03*
X86250Y240331D03*
X104781Y245831D03*
X107281Y110331D03*
X112781Y259331D03*
X116781Y190331D03*
X117781Y214831D03*
X119281Y239331D03*
D02*
D23*
X12219Y63331D02*
Y72799D01*
X17250Y77831D01*
X12219Y93331D02*
Y99331D01*
X2719Y108831D01*
Y246768D01*
X6219Y250268D01*
X12219D01*
Y153331D02*
Y160331D01*
X4219Y168331D01*
Y207768D01*
X6719Y210268D01*
X12219D01*
Y202394D02*
X15781D01*
X19219Y205831D01*
Y212831D01*
X16219Y215831D01*
X12219Y210268D02*
Y216831D01*
X12250D01*
Y222394D01*
X12219Y259831D02*
Y250268D01*
X12250Y222394D02*
Y223299D01*
X7219Y228331D01*
Y237394D01*
X12219Y242394D01*
X12250Y230268D02*
Y233862D01*
X19219Y240831D01*
X16219Y193331D02*
Y198394D01*
X12219Y202394D01*
X18750Y225831D02*
X16687D01*
X12250Y230268D01*
X37750Y246331D02*
X41687Y250268D01*
X45750D01*
Y63331D02*
Y69331D01*
X54250Y77831D01*
Y227268D01*
X51250Y230268D01*
X45750D01*
Y93331D02*
X40250Y98831D01*
Y110831D01*
X45750Y201894D02*
X49813D01*
X52250Y204331D01*
Y213831D01*
X50750Y215331D01*
X45750Y209768D02*
Y222394D01*
Y209768D02*
X41687D01*
X39750Y207831D01*
Y159331D01*
X45750Y153331D01*
Y222394D02*
Y222831D01*
X41250Y227331D01*
Y241394D01*
X42250Y242394D01*
X45750D01*
Y230268D02*
X46687D01*
Y234268D01*
X52250Y239831D01*
X45750Y250268D02*
Y259831D01*
X49750Y190831D02*
Y197894D01*
X45750Y201894D01*
X79250Y62831D02*
Y72299D01*
X84281Y77331D01*
X79250Y92831D02*
Y98831D01*
X69750Y108331D01*
Y246268D01*
X73250Y249768D01*
X79250D01*
Y152831D02*
Y159831D01*
X71250Y167831D01*
Y207268D01*
X73750Y209768D01*
X79250D01*
Y201894D02*
X82813D01*
X86250Y205331D01*
Y212331D01*
X83250Y215331D01*
X79250Y209768D02*
Y216331D01*
X79281D01*
Y221894D01*
X79250Y259331D02*
Y249768D01*
X79281Y221894D02*
Y222799D01*
X74250Y227831D01*
Y236894D01*
X79250Y241894D01*
X79281Y229768D02*
Y233362D01*
X86250Y240331D01*
X83250Y192831D02*
Y197894D01*
X79250Y201894D01*
X85781Y225331D02*
X83719D01*
X79281Y229768D01*
X104781Y245831D02*
X108719Y249768D01*
X112781D01*
Y62831D02*
Y68831D01*
X121281Y77331D01*
Y226768D01*
X118281Y229768D01*
X112781D01*
Y92831D02*
X107281Y98331D01*
Y110331D01*
X112781Y201394D02*
X116844D01*
X119281Y203831D01*
Y213331D01*
X117781Y214831D01*
X112781Y209268D02*
Y221894D01*
Y209268D02*
X108719D01*
X106781Y207331D01*
Y158831D01*
X112781Y152831D01*
Y221894D02*
Y222331D01*
X108281Y226831D01*
Y240894D01*
X109281Y241894D01*
X112781D01*
Y229768D02*
X113719D01*
Y233768D01*
X119281Y239331D01*
X112781Y249768D02*
Y259331D01*
X116781Y190331D02*
Y197394D01*
X112781Y201394D01*
D02*
D24*
X12219Y93331D03*
X45750D03*
X79250Y92831D03*
X112781D03*
D02*
D25*
X12219Y63331D03*
X45750D03*
X79250Y62831D03*
X112781D03*
D02*
D26*
X12219Y153331D03*
D02*
D27*
X45750D03*
X79250Y152831D03*
X112781D03*
D02*
D28*
X12250Y123331D03*
X45750D03*
X79281Y122831D03*
X112781D03*
D02*
D77*
X12219Y202394D03*
Y210268D03*
Y242394D03*
Y250268D03*
X12250Y222394D03*
Y230268D03*
X45750Y201894D03*
Y209768D03*
Y222394D03*
Y230268D03*
Y242394D03*
Y250268D03*
X79250Y201894D03*
Y209768D03*
Y241894D03*
Y249768D03*
X79281Y221894D03*
Y229768D03*
X112781Y201394D03*
Y209268D03*
Y221894D03*
Y229768D03*
Y241894D03*
Y249768D03*
X0Y0D02*
M02*
