G04 DesignSpark PCB Gerber Version 11.0 Build 5877*
G04 #@! TF.Part,Single*
G04 #@! TF.FileFunction,Legend,Bot*
G04 #@! TF.FilePolarity,Positive*
%FSLAX35Y35*%
%MOIN*%
%ADD22C,0.00500*%
%ADD78C,0.00787*%
G04 #@! TD.AperFunction*
X0Y0D02*
D02*
D22*
X11281Y246331D02*
X7531D01*
Y244143D01*
X7843Y243518D01*
X8469Y243206D01*
X9093Y243518D01*
X9406Y244143D01*
Y246331D01*
Y244143D02*
X11281Y243206D01*
Y241331D02*
X7531Y238831D01*
Y241331D01*
X14406Y206331D02*
X18156D01*
Y208518D01*
X17844Y209143D01*
X17219Y209456D01*
X16594Y209143D01*
X16281Y208518D01*
Y206331D01*
Y208518D02*
X14406Y209456D01*
Y212268D02*
X14719Y212893D01*
X15344Y213518D01*
X16281Y213831D01*
X17219D01*
X17844Y213518D01*
X18156Y212893D01*
Y212268D01*
X17844Y211643D01*
X17219Y211331D01*
X16594Y211643D01*
X16281Y212268D01*
Y212893D01*
X16594Y213518D01*
X17219Y213831D01*
X46687Y205831D02*
X50437D01*
Y208018D01*
X50125Y208643D01*
X49500Y208956D01*
X48875Y208643D01*
X48563Y208018D01*
Y205831D01*
Y208018D02*
X46687Y208956D01*
Y211456D02*
Y212706D01*
Y212081D02*
X50437D01*
X49813Y211456D01*
X46687Y218331D02*
Y215831D01*
X48875Y218018D01*
X49500Y218331D01*
X50125Y218018D01*
X50437Y217393D01*
Y216456D01*
X50125Y215831D01*
X44813Y226331D02*
X41063D01*
Y224143D01*
X41375Y223518D01*
X42000Y223206D01*
X42625Y223518D01*
X42937Y224143D01*
Y226331D01*
Y224143D02*
X44813Y223206D01*
Y220706D02*
Y219456D01*
Y220081D02*
X41063D01*
X41687Y220706D01*
X44813Y215706D02*
Y214456D01*
Y215081D02*
X41063D01*
X41687Y215706D01*
X44813Y246331D02*
X41063D01*
Y244143D01*
X41375Y243518D01*
X42000Y243206D01*
X42625Y243518D01*
X42937Y244143D01*
Y246331D01*
Y244143D02*
X44813Y243206D01*
Y240706D02*
Y239456D01*
Y240081D02*
X41063D01*
X41687Y240706D01*
X44500Y236018D02*
X44813Y235393D01*
Y234768D01*
X44500Y234143D01*
X43875Y233831D01*
X42000D01*
X41375Y234143D01*
X41063Y234768D01*
Y235393D01*
X41375Y236018D01*
X42000Y236331D01*
X43875D01*
X44500Y236018D01*
X41375Y234143D01*
X78313Y245831D02*
X74563D01*
Y243643D01*
X74875Y243018D01*
X75500Y242706D01*
X76125Y243018D01*
X76437Y243643D01*
Y245831D01*
Y243643D02*
X78313Y242706D01*
Y240206D02*
Y238956D01*
Y239581D02*
X74563D01*
X75187Y240206D01*
X78000Y235518D02*
X78313Y234893D01*
Y234268D01*
X78000Y233643D01*
X77375Y233331D01*
X76750Y233643D01*
X76437Y234268D01*
Y234893D01*
Y234268D02*
X76125Y233643D01*
X75500Y233331D01*
X74875Y233643D01*
X74563Y234268D01*
Y234893D01*
X74875Y235518D01*
X81437Y205831D02*
X85187D01*
Y208018D01*
X84875Y208643D01*
X84250Y208956D01*
X83625Y208643D01*
X83313Y208018D01*
Y205831D01*
Y208018D02*
X81437Y208956D01*
Y211456D02*
Y212706D01*
Y212081D02*
X85187D01*
X84563Y211456D01*
X81750Y215831D02*
X81437Y216456D01*
Y217393D01*
X81750Y218018D01*
X82375Y218331D01*
X82687D01*
X83313Y218018D01*
X83625Y217393D01*
Y215831D01*
X85187D01*
Y218331D01*
X113719Y205331D02*
X117469D01*
Y207518D01*
X117157Y208143D01*
X116531Y208456D01*
X115907Y208143D01*
X115594Y207518D01*
Y205331D01*
Y207518D02*
X113719Y208456D01*
Y210956D02*
Y212206D01*
Y211581D02*
X117469D01*
X116844Y210956D01*
X115594Y216268D02*
Y216893D01*
X115907Y217518D01*
X116531Y217831D01*
X117157Y217518D01*
X117469Y216893D01*
Y216268D01*
X117157Y215643D01*
X116531Y215331D01*
X115907Y215643D01*
X115594Y216268D01*
X115281Y215643D01*
X114657Y215331D01*
X114031Y215643D01*
X113719Y216268D01*
Y216893D01*
X114031Y217518D01*
X114657Y217831D01*
X115281Y217518D01*
X115594Y216893D01*
X111844Y225831D02*
X108094D01*
Y223643D01*
X108406Y223018D01*
X109031Y222706D01*
X109656Y223018D01*
X109969Y223643D01*
Y225831D01*
Y223643D02*
X111844Y222706D01*
Y220206D02*
Y218956D01*
Y219581D02*
X108094D01*
X108719Y220206D01*
X111844Y215831D02*
X108094Y213331D01*
Y215831D01*
X111844Y245831D02*
X108094D01*
Y243643D01*
X108406Y243018D01*
X109031Y242706D01*
X109656Y243018D01*
X109969Y243643D01*
Y245831D01*
Y243643D02*
X111844Y242706D01*
Y240206D02*
Y238956D01*
Y239581D02*
X108094D01*
X108719Y240206D01*
X110906Y235831D02*
X110281Y235518D01*
X109969Y234893D01*
Y234268D01*
X110281Y233643D01*
X110906Y233331D01*
X111531Y233643D01*
X111844Y234268D01*
Y234893D01*
X111531Y235518D01*
X110906Y235831D01*
X109969D01*
X109031Y235518D01*
X108406Y234893D01*
X108094Y234268D01*
D02*
D78*
X10152Y246331D02*
X14285D01*
X10183Y226331D02*
X14317D01*
X14285Y206331D02*
X10152D01*
X43683Y226331D02*
X47817D01*
X43683Y246331D02*
X47817D01*
Y205831D02*
X43683D01*
X77183Y245831D02*
X81317D01*
X77215Y225831D02*
X81348D01*
X81317Y205831D02*
X77183D01*
X110715Y225831D02*
X114848D01*
X110715Y245831D02*
X114848D01*
Y205331D02*
X110715D01*
X0Y0D02*
M02*
