G04 DesignSpark PCB Gerber Version 11.0 Build 5877*
G04 #@! TF.Part,Single*
G04 #@! TF.FileFunction,Drillmap*
G04 #@! TF.FilePolarity,Positive*
%FSLAX35Y35*%
%MOIN*%
%ADD22C,0.00500*%
G04 #@! TA.AperFunction,ViaPad*
%ADD21C,0.10000*%
G04 #@! TD.AperFunction*
X0Y0D02*
D02*
D21*
X12219Y63331D03*
Y93331D03*
Y153331D03*
Y259831D03*
X12250Y123331D03*
X16219Y193331D03*
Y215831D03*
X17250Y77831D03*
X18750Y225831D03*
X19219Y240831D03*
X37750Y246331D03*
X40250Y110831D03*
X45750Y63331D03*
Y93331D03*
Y123331D03*
Y153331D03*
Y259831D03*
X49750Y190831D03*
X50750Y215331D03*
X52250Y239831D03*
X79250Y62831D03*
Y92831D03*
Y152831D03*
Y259331D03*
X79281Y122831D03*
X83250Y192831D03*
Y215331D03*
X84281Y77331D03*
X85781Y225331D03*
X86250Y240331D03*
X104781Y245831D03*
X107281Y110331D03*
X112781Y62831D03*
Y92831D03*
Y122831D03*
Y152831D03*
Y259331D03*
X116781Y190331D03*
X117781Y214831D03*
X119281Y239331D03*
D02*
D22*
X23781Y69268D02*
Y71143D01*
X22219Y73018D01*
X23781Y71143D02*
X25344Y73018D01*
X23781Y99268D02*
Y101143D01*
X22219Y103018D01*
X23781Y101143D02*
X25344Y103018D01*
X22219Y159268D02*
Y163018D01*
X24094D01*
X24719Y162706D01*
X25031Y162393D01*
X25344Y161768D01*
Y160518D01*
X25031Y159893D01*
X24719Y159581D01*
X24094Y159268D01*
X22219D01*
Y269518D02*
X25344D01*
X22219Y265768D01*
X25344D01*
X23813Y129268D02*
Y131143D01*
X22250Y133018D01*
X23813Y131143D02*
X25375Y133018D01*
X26219Y203018D02*
X29344D01*
X26219Y199268D01*
X29344D01*
X26219Y225518D02*
X29344D01*
X26219Y221768D01*
X29344D01*
X27250Y87518D02*
X30375D01*
X27250Y83768D01*
X30375D01*
X28750Y235518D02*
X31875D01*
X28750Y231768D01*
X31875D01*
X29219Y250518D02*
X32344D01*
X29219Y246768D01*
X32344D01*
X47750Y256018D02*
X50875D01*
X47750Y252268D01*
X50875D01*
X50250Y120518D02*
X53375D01*
X50250Y116768D01*
X53375D01*
X57313Y69268D02*
Y71143D01*
X55750Y73018D01*
X57313Y71143D02*
X58875Y73018D01*
X57313Y99268D02*
Y101143D01*
X55750Y103018D01*
X57313Y101143D02*
X58875Y103018D01*
X57313Y129268D02*
Y131143D01*
X55750Y133018D01*
X57313Y131143D02*
X58875Y133018D01*
X57313Y159268D02*
Y161143D01*
X55750Y163018D01*
X57313Y161143D02*
X58875Y163018D01*
X55750Y269518D02*
X58875D01*
X55750Y265768D01*
X58875D01*
X59750Y200518D02*
X62875D01*
X59750Y196768D01*
X62875D01*
X60750Y225018D02*
X63875D01*
X60750Y221268D01*
X63875D01*
X62250Y249518D02*
X65375D01*
X62250Y245768D01*
X65375D01*
X90813Y68768D02*
Y70643D01*
X89250Y72518D01*
X90813Y70643D02*
X92375Y72518D01*
X90813Y98768D02*
Y100643D01*
X89250Y102518D01*
X90813Y100643D02*
X92375Y102518D01*
X90813Y158768D02*
Y160643D01*
X89250Y162518D01*
X90813Y160643D02*
X92375Y162518D01*
X89250Y269018D02*
X92375D01*
X89250Y265268D01*
X92375D01*
X90844Y128768D02*
Y130643D01*
X89281Y132518D01*
X90844Y130643D02*
X92407Y132518D01*
X93250Y202518D02*
X96375D01*
X93250Y198768D01*
X96375D01*
X93250Y225018D02*
X96375D01*
X93250Y221268D01*
X96375D01*
X94281Y87018D02*
X97407D01*
X94281Y83268D01*
X97407D01*
X95781Y235018D02*
X98907D01*
X95781Y231268D01*
X98907D01*
X96250Y250018D02*
X99375D01*
X96250Y246268D01*
X99375D01*
X114781Y255518D02*
X117907D01*
X114781Y251768D01*
X117907D01*
X117281Y120018D02*
X120407D01*
X117281Y116268D01*
X120407D01*
X124344Y68768D02*
Y70643D01*
X122781Y72518D01*
X124344Y70643D02*
X125907Y72518D01*
X124344Y98768D02*
Y100643D01*
X122781Y102518D01*
X124344Y100643D02*
X125907Y102518D01*
X124344Y128768D02*
Y130643D01*
X122781Y132518D01*
X124344Y130643D02*
X125907Y132518D01*
X124344Y158768D02*
Y160643D01*
X122781Y162518D01*
X124344Y160643D02*
X125907Y162518D01*
X122781Y269018D02*
X125907D01*
X122781Y265268D01*
X125907D01*
X126781Y200018D02*
X129907D01*
X126781Y196268D01*
X129907D01*
X127781Y224518D02*
X130907D01*
X127781Y220768D01*
X130907D01*
X129281Y249018D02*
X132407D01*
X129281Y245268D01*
X132407D01*
X0Y0D02*
M02*
