G05
M48
;#@! TF.GenerationSoftware,DesignSpark,DesignSpark PCB,11.0.5875
;#@! TF.CreationDate,2025-02-20T01:55:45+05:00*
;#@! TF.FileFunction,Plated,1,2,PTH
;FILE_FORMAT=3:5
;TYPE=PLATED
INCH,TZ
FMAT,2
T1C000.01600
T2C000.03150
T3C000.05906
%
T001
X0.12219Y2.59831
X0.16219Y1.93331
X0.16219Y2.15831
X0.17250Y0.77831
X0.18750Y2.25831
X0.19219Y2.40831
X0.37750Y2.46331
X0.40250Y1.10831
X0.45750Y2.59831
X0.49750Y1.90831
X0.50750Y2.15331
X0.52250Y2.39831
X0.79250Y2.59331
X0.83250Y1.92831
X0.83250Y2.15331
X0.84281Y0.77331
X0.85781Y2.25331
X0.86250Y2.40331
X1.04781Y2.45831
X1.07281Y1.10331
X1.12781Y2.59331
X1.16781Y1.90331
X1.17781Y2.14831
X1.19281Y2.39331
T002
X0.12219Y1.53331
T003
X0.12219Y0.63331
X0.12219Y0.93331
X0.12250Y1.23331
X0.45750Y0.63331
X0.45750Y0.93331
X0.45750Y1.23331
X0.45750Y1.53331
X0.79250Y0.62831
X0.79250Y0.92831
X0.79250Y1.52831
X0.79281Y1.22831
X1.12781Y0.62831
X1.12781Y0.92831
X1.12781Y1.22831
X1.12781Y1.52831
M30
