G04 DesignSpark PCB Gerber Version 11.0 Build 5877*
G04 #@! TF.Part,Single*
G04 #@! TF.FileFunction,Copper,L1,Top*
G04 #@! TF.FilePolarity,Positive*
%FSLAX35Y35*%
%MOIN*%
G04 #@! TA.AperFunction,ViaPad*
%AMT26*0 Hexagon Pad at angle 0*4,1,6,-0.03937,-0.02273,-0.03937,0.02273,0.00001,0.04546,0.03937,0.02273,0.03937,-0.02273,0.00001,-0.04546,-0.03937,-0.02273,0*%
%ADD26T26*%
%AMT27*0 Hexagon Pad at angle 0*4,1,6,-0.06890,-0.03978,-0.06890,0.03978,0.00001,0.07956,0.06890,0.03978,0.06890,-0.03978,0.00001,-0.07956,-0.06890,-0.03978,0*%
%ADD27T27*%
%AMT24*0 Octagon Pad at angle 0*4,1,8,-0.02854,-0.06890,0.02854,-0.06890,0.06890,-0.02854,0.06890,0.02854,0.02854,0.06890,-0.02854,0.06890,-0.06890,0.02854,-0.06890,-0.02854,-0.02854,-0.06890,0*%
%ADD24T24*%
%ADD28R,0.13780X0.13780*%
G04 #@! TD.AperFunction*
%ADD23C,0.00200*%
G04 #@! TA.AperFunction,ViaPad*
%ADD11C,0.03200*%
%ADD25C,0.13780*%
G04 #@! TA.AperFunction,SMDPad,CuDef*
%ADD29R,0.01870X0.01181*%
%ADD72R,0.02441X0.02362*%
G04 #@! TD.AperFunction*
X0Y0D02*
D02*
D11*
X12219Y259831D03*
X16219Y193331D03*
Y215831D03*
X17250Y77831D03*
X18750Y225831D03*
X19219Y240831D03*
X37750Y246331D03*
X40250Y110831D03*
X45750Y259831D03*
X49750Y190831D03*
X50750Y215331D03*
X52250Y239831D03*
X79250Y259331D03*
X83250Y192831D03*
Y215331D03*
X84281Y77331D03*
X85781Y225331D03*
X86250Y240331D03*
X104781Y245831D03*
X107281Y110331D03*
X112781Y259331D03*
X116781Y190331D03*
X117781Y214831D03*
X119281Y239331D03*
D02*
D23*
X8919Y268331D02*
Y266362D01*
X9419Y7331D02*
X5719D01*
X2719Y10331D01*
Y113799D01*
X12250Y123331D01*
X9419Y7331D02*
Y5362D01*
X11719Y186520D02*
Y185831D01*
X16719Y180831D01*
X16750D01*
X20250Y177331D01*
Y88331D01*
X12750Y80831D01*
Y74831D01*
X20250Y67331D01*
Y8862D01*
X18719Y7331D01*
X16018D01*
X11719Y190142D02*
Y192331D01*
X6219Y197831D01*
Y263661D01*
X8919Y266362D01*
X12219Y63331D02*
Y11799D01*
X14719Y9299D01*
X16018D01*
X12219Y93331D02*
Y86331D01*
X4219Y78331D01*
Y12299D01*
X7219Y9299D01*
X9419D01*
X12219Y259831D02*
Y269130D01*
X11219Y270130D01*
X9089D01*
X8919Y270299D01*
X12250Y123331D02*
Y130299D01*
X2719Y139831D01*
Y186142D01*
X6719Y190142D01*
X11719D01*
X15518Y266362D02*
Y262031D01*
X16719Y260831D01*
Y250331D01*
X13219Y246831D01*
Y218831D01*
X16219Y215831D01*
X15518Y268331D02*
Y266362D01*
X16018Y5362D02*
X9419D01*
X16219Y193331D02*
Y188520D01*
X14219Y186520D01*
X11719D01*
X17250Y77831D02*
Y80331D01*
X21750Y84831D01*
Y222831D01*
X18750Y225831D01*
X19219Y240831D02*
Y269799D01*
X18719Y270299D01*
X15518D01*
X37750Y246331D02*
Y187331D01*
X35750Y185331D01*
Y114331D01*
X39250Y110831D01*
X40250D01*
X42451Y7331D02*
X38750D01*
X35750Y10331D01*
Y101831D01*
X45750Y111831D01*
Y123331D01*
X42451Y7331D02*
Y5362D01*
Y266362D02*
Y265862D01*
X39750Y263161D01*
Y250831D01*
X40750Y249831D01*
Y242831D01*
X39250Y241331D01*
Y240331D01*
X39750Y196331D01*
X44750Y191331D01*
Y190142D01*
X42451Y268331D02*
Y266362D01*
Y270299D02*
X44281D01*
X45250Y269331D01*
Y267362D01*
X46250Y266362D01*
X49049D01*
X44750Y186520D02*
X45439D01*
X49750Y190831D01*
X45750Y93331D02*
Y92831D01*
X37250Y84331D01*
Y12331D01*
X40281Y9299D01*
X42451D01*
X45750Y123331D02*
Y134831D01*
X37250Y143331D01*
Y184142D01*
X43250Y190142D01*
X44750D01*
X45750Y259831D02*
Y261031D01*
X49049Y264331D01*
Y266362D01*
Y5362D02*
X47219D01*
X46250Y6331D01*
Y8331D01*
X46281D01*
X47250Y9299D01*
X49049D01*
Y7331D02*
X53250D01*
X55250Y9331D01*
Y182331D01*
X54250Y183331D01*
X47939D01*
X44750Y186520D01*
X49049Y9299D02*
Y60031D01*
X45750Y63331D01*
X49049Y270299D02*
X52750D01*
X54250Y268799D01*
Y256331D01*
X52250Y254331D01*
Y239831D01*
X50750Y215331D02*
Y217831D01*
X48250Y220331D01*
Y256331D01*
X52750Y260831D01*
Y266831D01*
X51250Y268331D01*
X49049D01*
X75951Y267831D02*
Y265862D01*
X76451Y6831D02*
X72750D01*
X69750Y9831D01*
Y113299D01*
X79281Y122831D01*
X76451Y6831D02*
Y4862D01*
X78750Y186020D02*
Y185331D01*
X83750Y180331D01*
X83781D01*
X87281Y176831D01*
Y87831D01*
X79781Y80331D01*
Y74331D01*
X87281Y66831D01*
Y8362D01*
X85750Y6831D01*
X83049D01*
X78750Y189642D02*
Y191831D01*
X73250Y197331D01*
Y263161D01*
X75951Y265862D01*
X79250Y62831D02*
Y11299D01*
X81750Y8799D01*
X83049D01*
X79250Y92831D02*
Y85831D01*
X71250Y77831D01*
Y11799D01*
X74250Y8799D01*
X76451D01*
X79250Y259331D02*
Y268630D01*
X78250Y269630D01*
X76120D01*
X75951Y269799D01*
X79281Y122831D02*
Y129799D01*
X69750Y139331D01*
Y185642D01*
X73750Y189642D01*
X78750D01*
X82549Y265862D02*
Y261531D01*
X83750Y260331D01*
Y249831D01*
X80250Y246331D01*
Y218331D01*
X83250Y215331D01*
X82549Y267831D02*
Y265862D01*
X83049Y4862D02*
X76451D01*
X83250Y192831D02*
Y188020D01*
X81250Y186020D01*
X78750D01*
X84281Y77331D02*
Y79831D01*
X88781Y84331D01*
Y222331D01*
X85781Y225331D01*
X86250Y240331D02*
Y269299D01*
X85750Y269799D01*
X82549D01*
X104781Y245831D02*
Y186831D01*
X102781Y184831D01*
Y113831D01*
X106281Y110331D01*
X107281D01*
X109482Y6831D02*
X105781D01*
X102781Y9831D01*
Y101331D01*
X112781Y111331D01*
Y122831D01*
X109482Y6831D02*
Y4862D01*
Y265862D02*
Y265362D01*
X106781Y262661D01*
Y250331D01*
X107781Y249331D01*
Y242331D01*
X106281Y240831D01*
Y239831D01*
X106781Y195831D01*
X111781Y190831D01*
Y189642D01*
X109482Y267831D02*
Y265862D01*
Y269799D02*
X111313D01*
X112281Y268831D01*
Y266862D01*
X113281Y265862D01*
X116081D01*
X111781Y186020D02*
X112470D01*
X116781Y190331D01*
X112781Y92831D02*
Y92331D01*
X104281Y83831D01*
Y11831D01*
X107313Y8799D01*
X109482D01*
X112781Y122831D02*
Y134331D01*
X104281Y142831D01*
Y183642D01*
X110281Y189642D01*
X111781D01*
X112781Y259331D02*
Y260531D01*
X116081Y263831D01*
Y265862D01*
Y4862D02*
X114250D01*
X113281Y5831D01*
Y7831D01*
X113313D01*
X114281Y8799D01*
X116081D01*
Y6831D02*
X120281D01*
X122281Y8831D01*
Y181831D01*
X121281Y182831D01*
X114970D01*
X111781Y186020D01*
X116081Y8799D02*
Y59531D01*
X112781Y62831D01*
X116081Y269799D02*
X119781D01*
X121281Y268299D01*
Y255831D01*
X119281Y253831D01*
Y239331D01*
X117781Y214831D02*
Y217331D01*
X115281Y219831D01*
Y255831D01*
X119781Y260331D01*
Y266331D01*
X118281Y267831D01*
X116081D01*
D02*
D24*
X12219Y93331D03*
X45750D03*
X79250Y92831D03*
X112781D03*
D02*
D25*
X12219Y63331D03*
X45750D03*
X79250Y62831D03*
X112781D03*
D02*
D26*
X12219Y153331D03*
D02*
D27*
X45750D03*
X79250Y152831D03*
X112781D03*
D02*
D28*
X12250Y123331D03*
X45750D03*
X79281Y122831D03*
X112781D03*
D02*
D29*
X8919Y266362D03*
Y268331D03*
Y270299D03*
X9419Y5362D03*
Y7331D03*
Y9299D03*
X15518Y266362D03*
Y268331D03*
Y270299D03*
X16018Y5362D03*
Y7331D03*
Y9299D03*
X42451Y5362D03*
Y7331D03*
Y9299D03*
Y266362D03*
Y268331D03*
Y270299D03*
X49049Y5362D03*
Y7331D03*
Y9299D03*
Y266362D03*
Y268331D03*
Y270299D03*
X75951Y265862D03*
Y267831D03*
Y269799D03*
X76451Y4862D03*
Y6831D03*
Y8799D03*
X82549Y265862D03*
Y267831D03*
Y269799D03*
X83049Y4862D03*
Y6831D03*
Y8799D03*
X109482Y4862D03*
Y6831D03*
Y8799D03*
Y265862D03*
Y267831D03*
Y269799D03*
X116081Y4862D03*
Y6831D03*
Y8799D03*
Y265862D03*
Y267831D03*
Y269799D03*
D02*
D72*
X11719Y186520D03*
Y190142D03*
X44750Y186520D03*
Y190142D03*
X78750Y186020D03*
Y189642D03*
X111781Y186020D03*
Y189642D03*
X0Y0D02*
M02*
